<svg width="136" height="96" viewBox="0 0 136 96" fill="none" xmlns="http://www.w3.org/2000/svg">
<g clip-path="url(#clip0_78_17)">
<mask id="mask0_78_17" style="mask-type:alpha" maskUnits="userSpaceOnUse" x="28" y="-1" width="81" height="97">
<path d="M30.8174 26.0062V7.89348C30.857 3.82198 34.0115 0.543335 37.889 0.543335H44.5029C48.4089 0.543335 51.5751 3.86817 51.5751 7.96951V26.0062M30.2269 65.8328V68.4186C30.2032 70.8673 31.3302 73.1707 33.24 74.5762L40.4438 79.8782C45.1307 83.3271 51.5751 79.8063 51.5751 73.7966V65.8328" stroke="#FC2F61" stroke-width="3"/>
<path d="M58.5903 26.1548V17.5982C58.5903 13.9524 61.7511 10.9969 65.6501 10.9969H72.1929C76.0919 10.9969 79.2527 13.9524 79.2527 17.5982V26.1548M58.5903 65.8328V84.6524C58.5903 86.7923 59.6999 88.8 61.5668 90.0373L65.1397 92.4061C67.6823 94.0919 71.1063 94.0188 73.5643 92.2266L76.5346 90.0602C78.2498 88.8092 79.2527 86.8886 79.2527 84.8548V65.8328" stroke="#FC2F61" stroke-width="3"/>
<path d="M86.0737 26.3034V7.96951C86.0737 3.86817 89.2399 0.543335 93.1459 0.543335H99.7004C103.606 0.543335 106.773 3.86817 106.773 7.96951V26.3034M86.0737 65.8328V73.3859C86.0737 79.4687 92.6571 82.9713 97.3285 79.3739L103.883 74.326C105.7 72.9267 106.773 70.7029 106.773 68.3374V65.8328" stroke="#FC2F61" stroke-width="3"/>
</mask>
<g mask="url(#mask0_78_17)">
<path d="M118.33 -55.787H29.6687V97.0836H118.33V-55.787Z" fill="#FB2C36"/>
</g>
<path d="M14.2463 42.3836V30.2118H16.0016L20.9032 37.2019H20.1911L25.1092 30.2118H26.8314V42.3836H25.043V37.289C25.043 36.2919 25.0651 35.3762 25.1092 34.5416C25.1534 33.6954 25.2417 32.8433 25.3742 31.9855L25.5729 32.6638L21.0688 38.8886H19.9759L15.5214 32.6986L15.7036 31.9855C15.825 32.8201 15.9078 33.6606 15.9519 34.5068C16.0071 35.3414 16.0347 36.2687 16.0347 37.289V42.3836H14.2463ZM37.3375 42.5574C36.3882 42.5574 35.5161 42.4011 34.7213 42.0881C33.9373 41.7633 33.2472 41.3172 32.6511 40.7492C32.0661 40.1812 31.6135 39.5205 31.2933 38.7668C30.9732 38.0017 30.813 37.1788 30.813 36.2978C30.813 35.4169 30.9732 34.5995 31.2933 33.8461C31.6135 33.0811 32.0661 32.4144 32.6511 31.8464C33.2472 31.2785 33.9373 30.838 34.7213 30.525C35.5161 30.2002 36.3882 30.0379 37.3375 30.0379C38.2868 30.0379 39.1535 30.1945 39.9373 30.5075C40.7321 30.8205 41.4221 31.2669 42.0072 31.8464C42.6033 32.4144 43.0615 33.0811 43.3817 33.8461C43.7128 34.5995 43.8784 35.4169 43.8784 36.2978C43.8784 37.1788 43.7128 38.0017 43.3817 38.7668C43.0615 39.5205 42.6033 40.1869 42.0072 40.7664C41.4221 41.3344 40.7321 41.7752 39.9373 42.0881C39.1535 42.4011 38.2868 42.5574 37.3375 42.5574ZM37.3375 40.7316C38.0329 40.7316 38.6622 40.6217 39.2254 40.4014C39.7994 40.1696 40.2962 39.8567 40.7157 39.4623C41.1462 39.0566 41.4773 38.5873 41.7091 38.054C41.941 37.5093 42.057 36.9237 42.057 36.2978C42.057 35.6719 41.941 35.0923 41.7091 34.5588C41.4773 34.014 41.1462 33.5447 40.7157 33.1506C40.2962 32.7449 39.7994 32.4317 39.2254 32.2114C38.6622 31.9796 38.0329 31.8637 37.3375 31.8637C36.6531 31.8637 36.0239 31.9796 35.4499 32.2114C34.8759 32.4317 34.3734 32.739 33.9429 33.1331C33.5235 33.5272 33.1977 33.9968 32.9659 34.5416C32.7451 35.0748 32.6347 35.6603 32.6347 36.2978C32.6347 36.9237 32.7451 37.5093 32.9659 38.054C33.1977 38.5988 33.5235 39.0681 33.9429 39.4623C34.3734 39.8567 34.8759 40.1696 35.4499 40.4014C36.0239 40.6217 36.6531 40.7316 37.3375 40.7316ZM46.0208 42.3836V41.0098L53.8532 31.7246L54.3503 32.0376H46.4513V30.2118H56.3205V31.5683L48.5048 40.8707L48.008 40.5578H56.5028V42.3836H46.0208ZM65.5419 42.5574C64.6585 42.5574 63.8362 42.4127 63.0746 42.1229C62.3126 41.8215 61.6449 41.3924 61.0709 40.836C60.5076 40.2796 60.0661 39.6189 59.746 38.8539C59.4258 38.0772 59.2659 37.2251 59.2659 36.2978C59.2659 35.4169 59.4315 34.5995 59.7627 33.8461C60.1049 33.0927 60.5628 32.4376 61.1371 31.8812C61.7222 31.3132 62.3955 30.8784 63.1572 30.577C63.9189 30.2641 64.7304 30.1075 65.5914 30.1075C66.2758 30.1075 66.9328 30.2061 67.562 30.4032C68.1912 30.6002 68.7598 30.8552 69.2676 31.1682C69.7864 31.4696 70.2059 31.8001 70.526 32.1594L69.4165 33.6547C69.0412 33.307 68.6494 33.0115 68.241 32.7681C67.8436 32.5128 67.4131 32.3157 66.9492 32.1767C66.4966 32.0376 66.0109 31.968 65.4921 31.968C64.918 31.968 64.3661 32.0723 63.8363 32.281C63.3174 32.478 62.8481 32.7681 62.4287 33.1506C62.0202 33.5331 61.6944 33.9908 61.4516 34.524C61.2087 35.0575 61.0873 35.6487 61.0873 36.2978C61.0873 37.0049 61.2087 37.6308 61.4516 38.1756C61.7055 38.7204 62.0477 39.1841 62.4782 39.5669C62.9087 39.9378 63.4001 40.2216 63.952 40.4187C64.515 40.6157 65.1111 40.7144 65.7406 40.7144C66.2925 40.7144 66.7946 40.6389 67.2472 40.4882C67.7111 40.326 68.1306 40.1289 68.5059 39.8971C68.8813 39.6537 69.2178 39.3986 69.5161 39.132L70.3936 40.6796C70.1066 40.9694 69.7092 41.2592 69.2014 41.549C68.7046 41.8388 68.1417 42.0822 67.5124 42.2792C66.883 42.4647 66.2263 42.5574 65.5419 42.5574ZM78.2107 42.3836V36.7151L78.459 37.8802L72.7958 30.2118H75.1637L79.3367 36.0892L78.9393 36.0544L82.93 30.2118H85.0828L79.8501 37.654L79.999 36.576V42.3836H78.2107ZM88.3211 42.3836V30.2118H94.1004C94.9945 30.2118 95.7398 30.3336 96.3359 30.577C96.932 30.8089 97.3845 31.151 97.6936 31.603C98.0027 32.0551 98.1573 32.6115 98.1573 33.2722C98.1573 33.9213 97.9642 34.4777 97.5779 34.9416C97.1912 35.4053 96.6339 35.7355 95.9053 35.9325L95.988 35.5848C96.4847 35.7007 96.943 35.8978 97.3625 36.176C97.793 36.4426 98.1352 36.7962 98.3891 37.2367C98.643 37.6656 98.7701 38.1872 98.7701 38.8015C98.7701 39.4622 98.6486 40.0246 98.4058 40.4882C98.174 40.9403 97.8538 41.3056 97.4454 41.5838C97.0367 41.862 96.573 42.065 96.0542 42.1925C95.5464 42.32 95.0109 42.3836 94.4479 42.3836H88.3211ZM90.1094 40.5753H94.4479C94.9447 40.5753 95.3809 40.5114 95.7562 40.3839C96.1315 40.2448 96.4242 40.0421 96.6339 39.7755C96.8436 39.4973 96.9484 39.1609 96.9484 38.7668C96.9484 38.3379 96.8216 37.9961 96.5677 37.7411C96.3248 37.4861 96.0047 37.3006 95.6073 37.1847C95.2099 37.0685 94.7958 37.0105 94.3653 37.0105H90.1094V40.5753ZM90.1094 35.185H94.2824C94.6577 35.185 94.9999 35.1211 95.3092 34.9936C95.6183 34.8545 95.8666 34.6631 96.0542 34.4197C96.2419 34.1763 96.3359 33.8981 96.3359 33.5851C96.3359 33.0404 96.1261 32.6462 95.7066 32.4028C95.2872 32.1478 94.746 32.0203 94.0837 32.0203H90.1094V35.185ZM102.742 42.3836V30.2118H111.518V32.0203H104.53V40.5753H111.518V42.3836H102.742ZM103.653 37.0453V35.2371H110.608V37.0453H103.653ZM115.998 42.3836V30.2118H122.108C122.782 30.2118 123.4 30.38 123.963 30.7161C124.526 31.0523 124.978 31.5103 125.321 32.0899C125.663 32.6578 125.834 33.2954 125.834 34.0024C125.834 34.7095 125.652 35.3589 125.287 35.9501C124.934 36.5296 124.46 36.9933 123.863 37.341C123.267 37.6888 122.61 37.8626 121.893 37.8626H117.786V42.3836H115.998ZM124.211 42.3836L120.634 36.889L122.522 36.4542L126.43 42.4011L124.211 42.3836ZM117.786 36.0544H121.843C122.23 36.0544 122.583 35.9617 122.903 35.7762C123.223 35.5907 123.477 35.3414 123.665 35.0284C123.852 34.7155 123.946 34.3734 123.946 34.0024C123.946 33.6199 123.847 33.2838 123.648 32.994C123.449 32.6926 123.173 32.4548 122.82 32.281C122.478 32.1071 122.097 32.0203 121.678 32.0203H117.786V36.0544Z" fill="black"/>
<path d="M7.91513 62.1191C7.03197 62.1191 6.20952 61.9741 5.44779 61.6843C4.68606 61.3829 4.01818 60.954 3.44411 60.3977C2.8811 59.8413 2.43952 59.1803 2.11938 58.4152C1.79923 57.6386 1.63916 56.7865 1.63916 55.8592C1.63916 54.9783 1.80475 54.1609 2.13594 53.4075C2.47816 52.6541 2.9363 51.999 3.51034 51.4426C4.09545 50.8746 4.76885 50.4401 5.53058 50.1384C6.29231 49.8255 7.10372 49.6691 7.9648 49.6691C8.64924 49.6691 9.3061 49.7675 9.93534 49.9646C10.5646 50.1616 11.1331 50.4169 11.6409 50.7299C12.1598 51.0313 12.5793 51.3615 12.8995 51.7208L11.79 53.2164C11.4147 52.8686 11.0227 52.5729 10.6143 52.3295C10.2169 52.0745 9.78632 51.8774 9.32266 51.7383C8.87004 51.5992 8.38431 51.5297 7.86546 51.5297C7.29138 51.5297 6.73941 51.634 6.20952 51.8427C5.69064 52.0397 5.22147 52.3295 4.80197 52.712C4.39353 53.0945 4.06786 53.5525 3.82498 54.0857C3.58212 54.6189 3.46067 55.2101 3.46067 55.8592C3.46067 56.5663 3.58212 57.1925 3.82498 57.7373C4.0789 58.2821 4.42113 58.7457 4.85167 59.1283C5.28221 59.4992 5.77346 59.7833 6.32543 59.9804C6.88844 60.1774 7.48459 60.2758 8.11383 60.2758C8.6658 60.2758 9.16812 60.2006 9.62074 60.0499C10.0844 59.8876 10.5039 59.6906 10.8792 59.4585C11.2546 59.215 11.5913 58.96 11.8893 58.6934L12.767 60.241C12.48 60.5308 12.0825 60.8206 11.5747 61.1104C11.0779 61.4002 10.5149 61.6436 9.88567 61.8409C9.25643 62.0264 8.59956 62.1191 7.91513 62.1191ZM22.4222 62.1191C21.4728 62.1191 20.6007 61.9625 19.8058 61.6495C19.022 61.325 18.3321 60.8786 17.7359 60.3106C17.1508 59.7426 16.6982 59.0819 16.3781 58.3285C16.0579 57.5634 15.8978 56.7401 15.8978 55.8592C15.8978 54.9783 16.0579 54.1609 16.3781 53.4075C16.6982 52.6425 17.1508 51.9758 17.7359 51.4078C18.3321 50.8399 19.022 50.3994 19.8058 50.0864C20.6007 49.7619 21.4728 49.5996 22.4222 49.5996C23.3716 49.5996 24.2382 49.7559 25.022 50.0689C25.8168 50.3822 26.5068 50.8283 27.0919 51.4078C27.6881 51.9758 28.1462 52.6425 28.4662 53.4075C28.7974 54.1609 28.963 54.9783 28.963 55.8592C28.963 56.7401 28.7974 57.5634 28.4662 58.3285C28.1462 59.0819 27.6881 59.7485 27.0919 60.3281C26.5068 60.8961 25.8168 61.3366 25.022 61.6495C24.2382 61.9625 23.3716 62.1191 22.4222 62.1191ZM22.4222 60.2933C23.1177 60.2933 23.747 60.1831 24.31 59.9628C24.884 59.731 25.3808 59.418 25.8003 59.0239C26.2308 58.6182 26.562 58.1486 26.7939 57.6154C27.0257 57.0707 27.1416 56.4851 27.1416 55.8592C27.1416 55.2333 27.0257 54.6537 26.7939 54.1205C26.562 53.5757 26.2308 53.1061 25.8003 52.712C25.3808 52.3063 24.884 51.9934 24.31 51.7731C23.747 51.5413 23.1177 51.4254 22.4222 51.4254C21.7378 51.4254 21.1085 51.5413 20.5344 51.7731C19.9604 51.9934 19.4581 52.3004 19.0276 52.6948C18.6081 53.0889 18.2824 53.5582 18.0505 54.103C17.8298 54.6362 17.7194 55.2217 17.7194 55.8592C17.7194 56.4851 17.8298 57.0707 18.0505 57.6154C18.2824 58.1602 18.6081 58.6298 19.0276 59.0239C19.4581 59.418 19.9604 59.731 20.5344 59.9628C21.1085 60.1831 21.7378 60.2933 22.4222 60.2933ZM32.9423 61.9453V49.7735H34.6978L39.5993 56.7633H38.8871L43.8053 49.7735H45.5274V61.9453H43.7391V56.8504C43.7391 55.8536 43.7612 54.9378 43.8053 54.103C43.8495 53.2568 43.9378 52.4047 44.0703 51.5469L44.269 52.2252L39.7649 58.45H38.6717L34.2174 52.26L34.3997 51.5469C34.5212 52.3815 34.6038 53.222 34.648 54.0682C34.7032 54.9028 34.7309 55.8304 34.7309 56.8504V61.9453H32.9423ZM50.3867 61.9453V49.7735H52.1422L57.0437 56.7633H56.3315L61.2497 49.7735H62.9718V61.9453H61.1835V56.8504C61.1835 55.8536 61.2056 54.9378 61.2497 54.103C61.2939 53.2568 61.3822 52.4047 61.5147 51.5469L61.7134 52.2252L57.2093 58.45H56.1164L51.6618 52.26L51.8441 51.5469C51.9656 52.3815 52.0482 53.222 52.0924 54.0682C52.1476 54.9028 52.1753 55.8304 52.1753 56.8504V61.9453H50.3867ZM73.0477 62.0496C71.9766 62.0496 71.0329 61.8118 70.2158 61.3366C69.41 60.8497 68.7754 60.1947 68.3114 59.3717C67.8589 58.5371 67.6327 57.5923 67.6327 56.5375V49.7559H69.421V56.4331C69.421 57.1518 69.5812 57.8009 69.9013 58.3805C70.2325 58.9484 70.674 59.4005 71.226 59.737C71.7779 60.0615 72.385 60.2238 73.0477 60.2238C73.7541 60.2238 74.3833 60.0615 74.9353 59.737C75.4983 59.4005 75.9398 58.9484 76.2599 58.3805C76.5911 57.8009 76.7567 57.1518 76.7567 56.4331V49.7559H78.4623V56.5375C78.4623 57.5923 78.2305 58.5371 77.7669 59.3717C77.3143 60.1947 76.6794 60.8497 75.8625 61.3366C75.0567 61.8118 74.1184 62.0496 73.0477 62.0496ZM83.1249 61.9453V49.7735H84.8306L93.4083 59.737L93.2427 59.8933C93.1985 59.5687 93.1544 59.2151 93.1102 58.8325C93.0771 58.45 93.0494 58.0559 93.0273 57.6502C93.0052 57.2445 92.9831 56.8272 92.9611 56.3984C92.95 55.9579 92.939 55.5174 92.9279 55.0769C92.9169 54.6362 92.9115 54.2017 92.9115 53.7728V49.7735H94.6998V61.9453H92.9611L84.4994 52.3467L84.5821 52.1033C84.6152 52.4858 84.6429 52.8627 84.665 53.2336C84.6981 53.593 84.7312 53.9407 84.7643 54.2768C84.7974 54.613 84.8195 54.9378 84.8306 55.2508C84.8526 55.5522 84.8691 55.842 84.8801 56.1202C84.9022 56.3868 84.9132 56.6418 84.9132 56.8852V61.9453H83.1249ZM99.4844 61.9453V60.1367H102.084V51.5817H99.4844V49.7735H106.489V51.5817H103.872V60.1367H106.489V61.9453H99.4844ZM114.002 61.9453V51.5817H110.028V49.7735H119.881V51.5817H115.791V61.9453H114.002ZM127.462 61.9453V56.2765L127.71 57.4416L122.047 49.7735H124.415L128.588 55.6506L128.19 55.6158L132.181 49.7735H134.334L129.101 57.2157L129.25 56.1374V61.9453H127.462Z" fill="black"/>
</g>
<defs>
<clipPath id="clip0_78_17">
<rect width="135.579" height="96" fill="white"/>
</clipPath>
</defs>
</svg>
