<svg width="1200" height="800" viewBox="0 0 1200 800" fill="none" xmlns="http://www.w3.org/2000/svg">
<g clip-path="url(#clip0_811_307)">
<g opacity="0.12">
<path d="M822.068 50.3057C822.068 50.3057 881.941 69.0958 969.993 145.426C1059.7 223.2 1100.57 299.03 1100.57 299.03C1100.57 299.03 980.629 139.467 811.682 65.742L822.068 50.3057ZM569.941 71.1427L562.502 67.508C562.502 67.508 625.629 22.8552 718.542 25.8708C664.606 29.5399 614.484 42.931 569.941 71.1427ZM549.343 91.9592C548.934 89.1272 542.032 97.556 537.835 100.59C537.452 101.378 537.109 101.83 538.873 102.063C539.296 101.251 539.611 101.102 539.611 101.102C539.611 101.102 544.495 99.912 546.368 98.4232C548.241 96.9336 549.548 93.532 549.343 91.9592ZM353.812 346.624C353.812 346.624 383.898 218.242 559.768 256.044C585.904 261.706 611.613 269.513 636.708 279.406C769.735 334.838 832.405 153.58 734.594 104.156C694.126 83.4576 635.936 90.02 578.779 97.2296C576.744 104.422 574.486 110.623 568.674 114.856C562.862 119.09 545.601 119.382 539.66 120.74C533.761 122.074 514.431 127.545 500.23 138.358C499.593 132.964 486.456 112.774 486.456 112.774C486.456 112.774 490.577 114.535 501.561 114.131C512.575 113.738 528.103 105.495 528.601 104.87C529.099 104.245 529.65 103.131 527.59 101.72C526.378 99.3144 532.003 95.3592 534.361 94.024C536.719 92.6896 555.437 74.3405 555.857 73.9592C556.3 73.5082 556.554 73.0209 557.594 72.6903C560.413 72.7556 570.802 79.5296 570.802 79.5296C570.802 79.5296 590.973 76.4742 603.584 57.5722C602.319 61.2655 604.059 66.5503 598.427 73.9162C608.724 73.0418 618.765 68.5338 630.711 52.2698C630.918 64.3192 625.224 69.6592 625.224 69.6592C625.224 69.6592 648.377 71.1286 658.899 49.7449C659.357 61.4235 653.742 66.0889 653.742 66.0889C653.742 66.0889 694.569 58.759 751.503 81.1616C790.865 92.2376 823.591 16.7793 824.21 2.11631C824.21 2.11631 889.816 -9.96123 1002.64 18.1441C1115.42 46.2724 1200 94.34 1200 94.34C1200 94.34 1012.04 7.183 835.735 18.9553C821.883 44.2281 791.822 83.5944 776.45 102.141C794.439 131.408 815.858 160.71 799.451 227.849C783.044 294.987 716.964 333.439 657.017 311.482C599.525 292.546 560.387 277.478 504.072 287.418C449.739 298.697 384.622 373.16 355.62 451.948C370.496 390.83 429.912 270.383 530.911 266.934C398.817 242.95 353.812 346.624 353.812 346.624ZM828.051 41.7082L837.833 26.5823C837.833 26.5823 916.381 40.6191 1012.81 88.3928C1109.24 136.166 1196.37 216.798 1196.37 216.798C1196.37 216.798 1010.85 74.702 828.051 41.7082Z" fill="#999999"/>
<path d="M399.794 265.692C399.794 265.692 462.452 241.665 578.819 239.142C697.374 236.581 771.49 262.625 771.49 262.625C771.49 262.625 585.321 228.613 398.229 282.453L399.794 265.692ZM185.683 434.204L177.253 436.313C177.253 436.313 211.243 367.553 295.466 312.657C249.271 348.175 211.307 387.906 185.683 434.204ZM177.699 460.848C175.927 459.191 173.974 469.098 171.747 473.713C171.799 474.48 171.718 474.994 173.404 474.07C173.377 473.264 173.582 472.971 173.582 472.971C173.582 472.971 177.34 469.177 178.266 467.025C179.193 464.875 178.665 461.782 177.699 460.848ZM130.3 752.218C130.3 752.218 93.2207 647.293 268.607 565.008C294.694 552.81 321.468 542.317 348.732 533.607C494.746 489.449 460.374 328.935 348.702 355.565C302.375 366.414 253.832 406.487 206.529 446.364C208.295 452.457 209.37 458.018 206.302 464.43C203.233 470.844 188.01 481.617 183.396 486.17C178.808 490.684 164.319 506.213 157.055 522.198C153.805 518.954 132.064 513.401 132.064 513.401C132.064 513.401 136.609 512.063 146.188 505.061C155.798 498.049 165.523 482.981 165.655 482.255C165.787 481.529 165.724 480.44 163.188 480.752C160.913 479.873 163.952 473.763 165.388 471.419C166.824 469.075 174.36 445.245 174.546 444.73C174.716 444.155 174.699 443.671 175.461 442.811C178.002 441.128 190.622 439.327 190.622 439.327C190.622 439.327 207.061 424.909 208.886 404.449C209.597 407.712 213.774 410.206 212.426 418.619C221.158 411.721 227.856 402.533 230.4 384.256C236.578 392.247 234.166 399.333 234.166 399.333C234.166 399.333 255.511 386.137 254.241 365.285C260.458 372.873 257.78 379.455 257.78 379.455C257.78 379.455 290.483 349.502 352.318 329.713C392.873 313.058 384.474 242.169 377.73 231.912C377.73 231.912 430.135 183.578 544.566 133.389C658.971 83.2399 758.186 63.8042 758.186 63.8042C758.186 63.8042 547.486 120.242 396.365 236.197C396.604 261.712 389.426 306.649 384.966 328.563C415.542 337.259 449.189 343.877 467.98 399.162C486.771 454.447 447.067 520.838 382.772 542.774C322.164 565.241 279.822 579.069 234.627 620.269C191.864 661.157 170.932 751.219 184.305 822.072C167.144 771.779 160.126 654.23 248.334 590.025C118.795 654.798 130.3 752.218 130.3 752.218ZM400.847 256.232L402.032 240.047C402.032 240.047 478.947 201.38 588.566 174.485C698.185 147.592 815.872 148.531 815.872 148.531C815.872 148.531 580.011 166.463 400.847 256.232Z" fill="#999999"/>
<path d="M140.148 406.8H883.577" stroke="white" stroke-opacity="0.3"/>
<path d="M57.625 662.8H966.101" stroke="white" stroke-opacity="0.3"/>
<path d="M57.625 611.6H966.101" stroke="white" stroke-opacity="0.3"/>
<path d="M140.148 355.6H883.577" stroke="white" stroke-opacity="0.3"/>
<path d="M140.148 560.4H883.577" stroke="white" stroke-opacity="0.3"/>
<path d="M57.625 304.4H966.101" stroke="white" stroke-opacity="0.3"/>
<path d="M140.148 509.2H883.577" stroke="white" stroke-opacity="0.3"/>
<path d="M57.625 765.2H966.101" stroke="white" stroke-opacity="0.3"/>
<path d="M140.148 458H883.577" stroke="white" stroke-opacity="0.3"/>
<path d="M57.625 714H966.101" stroke="white" stroke-opacity="0.3"/>
<path d="M0 227.6H1024.44" stroke="white" stroke-opacity="0.3"/>
<path d="M0 93.2002H1024.44" stroke="white" stroke-opacity="0.3"/>
<path d="M0 29.2002L1024.44 29.2003" stroke="white" stroke-opacity="0.3"/>
<path d="M470.602 663.2V457.6" stroke="white" stroke-opacity="0.3"/>
<path d="M718.174 663.2V457.6" stroke="white" stroke-opacity="0.3"/>
<path d="M305.553 663.2V457.6" stroke="white" stroke-opacity="0.3"/>
<path d="M965.746 837.6V92.7998" stroke="white" stroke-opacity="0.3"/>
<path d="M223.029 765.6V356.8" stroke="white" stroke-opacity="0.3"/>
<path d="M883.221 837.6V227.2" stroke="white" stroke-opacity="0.3"/>
<path d="M140.504 837.6V227.2" stroke="white" stroke-opacity="0.3"/>
<path d="M553.125 663.2V457.6" stroke="white" stroke-opacity="0.3"/>
<path d="M800.697 765.6V356.8" stroke="white" stroke-opacity="0.3"/>
<mask id="mask0_811_307" style="mask-type:luminance" maskUnits="userSpaceOnUse" x="965" y="304" width="86" height="308">
<path d="M965.389 304H1050.05V612H965.389V304Z" fill="white"/>
</mask>
<g mask="url(#mask0_811_307)">
<path d="M922.455 340.099L1061.52 267.176" stroke="white" stroke-opacity="0.3"/>
<path d="M922.455 525.21L1061.52 452.287" stroke="white" stroke-opacity="0.3"/>
<path d="M922.455 432.654L1061.52 359.732" stroke="white" stroke-opacity="0.3"/>
<path d="M922.455 617.765L1061.52 544.842" stroke="white" stroke-opacity="0.3"/>
<path d="M922.455 353.32L1061.52 280.398" stroke="white" stroke-opacity="0.3"/>
<path d="M922.455 538.432L1061.52 465.509" stroke="white" stroke-opacity="0.3"/>
<path d="M922.455 445.876L1061.52 372.953" stroke="white" stroke-opacity="0.3"/>
<path d="M922.455 630.988L1061.52 558.064" stroke="white" stroke-opacity="0.3"/>
<path d="M922.455 366.543L1061.52 293.621" stroke="white" stroke-opacity="0.3"/>
<path d="M922.455 551.654L1061.52 478.731" stroke="white" stroke-opacity="0.3"/>
<path d="M922.455 459.099L1061.52 386.176" stroke="white" stroke-opacity="0.3"/>
<path d="M922.455 644.21L1061.52 571.287" stroke="white" stroke-opacity="0.3"/>
<path d="M922.455 379.765L1061.52 306.842" stroke="white" stroke-opacity="0.3"/>
<path d="M922.455 564.877L1061.52 491.954" stroke="white" stroke-opacity="0.3"/>
<path d="M922.455 472.32L1061.52 399.398" stroke="white" stroke-opacity="0.3"/>
<path d="M922.455 657.432L1061.52 584.509" stroke="white" stroke-opacity="0.3"/>
<path d="M922.455 392.988L1061.52 320.064" stroke="white" stroke-opacity="0.3"/>
<path d="M922.455 578.099L1061.52 505.176" stroke="white" stroke-opacity="0.3"/>
<path d="M922.455 485.543L1061.52 412.621" stroke="white" stroke-opacity="0.3"/>
<path d="M922.455 670.654L1061.52 597.731" stroke="white" stroke-opacity="0.3"/>
<path d="M922.455 406.21L1061.52 333.287" stroke="white" stroke-opacity="0.3"/>
<path d="M922.455 591.321L1061.52 518.398" stroke="white" stroke-opacity="0.3"/>
<path d="M922.455 498.765L1061.52 425.842" stroke="white" stroke-opacity="0.3"/>
<path d="M922.455 683.877L1061.52 610.954" stroke="white" stroke-opacity="0.3"/>
<path d="M922.455 419.432L1061.52 346.509" stroke="white" stroke-opacity="0.3"/>
<path d="M922.455 604.543L1061.52 531.621" stroke="white" stroke-opacity="0.3"/>
<path d="M922.455 511.988L1061.52 439.064" stroke="white" stroke-opacity="0.3"/>
</g>
<mask id="mask1_811_307" style="mask-type:luminance" maskUnits="userSpaceOnUse" x="965" y="304" width="86" height="308">
<g opacity="0.12">
<path d="M965.389 304H1050.05V612H965.389V304Z" fill="white"/>
</g>
</mask>
<g mask="url(#mask1_811_307)">
<path d="M965.389 304.8H1050.05V303.2H965.389V304.8ZM1050.05 611.2H965.389V612.8H1050.05V611.2Z" fill="white" fill-opacity="0.3"/>
</g>
</g>
</g>
<defs>
<clipPath id="clip0_811_307">
<rect width="1200" height="800" fill="white"/>
</clipPath>
</defs>
</svg>
