<svg width="1434" height="1049" viewBox="0 0 1434 1049" fill="none" xmlns="http://www.w3.org/2000/svg">
<g opacity="0.12">
<line x1="234" y1="472.5" x2="1279" y2="472.5" stroke="#999999"/>
<line x1="118" y1="792.5" x2="1395" y2="792.5" stroke="#999999"/>
<line x1="118" y1="728.5" x2="1395" y2="728.5" stroke="#999999"/>
<line x1="118" y1="1048.5" x2="1395" y2="1048.5" stroke="#999999"/>
<line x1="234" y1="408.5" x2="1279" y2="408.5" stroke="#999999"/>
<line x1="234" y1="664.5" x2="1279" y2="664.5" stroke="#999999"/>
<line x1="118" y1="984.5" x2="1395" y2="984.5" stroke="#999999"/>
<line x1="118" y1="344.5" x2="1395" y2="344.5" stroke="#999999"/>
<line x1="234" y1="600.5" x2="1279" y2="600.5" stroke="#999999"/>
<line x1="118" y1="920.5" x2="1395" y2="920.5" stroke="#999999"/>
<line x1="234" y1="536.5" x2="1279" y2="536.5" stroke="#999999"/>
<line x1="118" y1="856.5" x2="1395" y2="856.5" stroke="#999999"/>
<line x1="37" y1="248.5" x2="1477" y2="248.5" stroke="#999999"/>
<line x1="37" y1="80.5" x2="1477" y2="80.5001" stroke="#999999"/>
<line x1="37" y1="0.5" x2="1477" y2="0.500126" stroke="#999999"/>
<line x1="78.5" y1="1011" x2="78.5001" y2="80" stroke="#999999"/>
<line x1="658.5" y1="793" x2="658.5" y2="536" stroke="#999999"/>
<line x1="1006.5" y1="793" x2="1006.5" y2="536" stroke="#999999"/>
<line x1="426.5" y1="793" x2="426.5" y2="536" stroke="#999999"/>
<line x1="1354.5" y1="1011" x2="1354.5" y2="80" stroke="#999999"/>
<line x1="310.5" y1="921" x2="310.5" y2="410" stroke="#999999"/>
<line x1="1238.5" y1="1011" x2="1238.5" y2="248" stroke="#999999"/>
<line x1="194.5" y1="1011" x2="194.5" y2="248" stroke="#999999"/>
<line x1="774.5" y1="793" x2="774.5" y2="536" stroke="#999999"/>
<line x1="1122.5" y1="921" x2="1122.5" y2="410" stroke="#999999"/>
<g clip-path="url(#clip0_815_941)">
<mask id="path-26-inside-1_815_941" fill="white">
<path d="M1394 344H1513V729H1394V344Z"/>
</mask>
<line x1="1333.65" y1="389.124" x2="1529.13" y2="297.97" stroke="#999999"/>
<line x1="1333.65" y1="620.513" x2="1529.13" y2="529.359" stroke="#999999"/>
<line x1="1333.65" y1="504.818" x2="1529.13" y2="413.664" stroke="#999999"/>
<line x1="1333.65" y1="736.207" x2="1529.13" y2="645.054" stroke="#999999"/>
<line x1="1333.65" y1="405.651" x2="1529.13" y2="314.498" stroke="#999999"/>
<line x1="1333.65" y1="637.04" x2="1529.13" y2="545.887" stroke="#999999"/>
<line x1="1333.65" y1="521.346" x2="1529.13" y2="430.192" stroke="#999999"/>
<line x1="1333.65" y1="752.735" x2="1529.13" y2="661.581" stroke="#999999"/>
<line x1="1333.65" y1="422.179" x2="1529.13" y2="331.026" stroke="#999999"/>
<line x1="1333.65" y1="653.568" x2="1529.13" y2="562.414" stroke="#999999"/>
<line x1="1333.65" y1="537.874" x2="1529.13" y2="446.72" stroke="#999999"/>
<line x1="1333.65" y1="769.263" x2="1529.13" y2="678.109" stroke="#999999"/>
<line x1="1333.65" y1="438.707" x2="1529.13" y2="347.554" stroke="#999999"/>
<line x1="1333.65" y1="670.096" x2="1529.13" y2="578.942" stroke="#999999"/>
<line x1="1333.65" y1="554.401" x2="1529.13" y2="463.248" stroke="#999999"/>
<line x1="1333.65" y1="785.79" x2="1529.13" y2="694.637" stroke="#999999"/>
<line x1="1333.65" y1="455.235" x2="1529.13" y2="364.081" stroke="#999999"/>
<line x1="1333.65" y1="686.624" x2="1529.13" y2="595.47" stroke="#999999"/>
<line x1="1333.65" y1="570.929" x2="1529.13" y2="479.776" stroke="#999999"/>
<line x1="1333.65" y1="802.318" x2="1529.13" y2="711.164" stroke="#999999"/>
<line x1="1333.65" y1="471.763" x2="1529.13" y2="380.609" stroke="#999999"/>
<line x1="1333.65" y1="703.151" x2="1529.13" y2="611.998" stroke="#999999"/>
<line x1="1333.65" y1="587.457" x2="1529.13" y2="496.304" stroke="#999999"/>
<line x1="1333.65" y1="818.846" x2="1529.13" y2="727.692" stroke="#999999"/>
<line x1="1333.65" y1="488.29" x2="1529.13" y2="397.137" stroke="#999999"/>
<line x1="1333.65" y1="719.679" x2="1529.13" y2="628.526" stroke="#999999"/>
<line x1="1333.65" y1="603.985" x2="1529.13" y2="512.831" stroke="#999999"/>
</g>
<path d="M1394 344V345H1513V344V343H1394V344ZM1513 729V728H1394V729V730H1513V729Z" fill="#999999" mask="url(#path-26-inside-1_815_941)"/>
<g clip-path="url(#clip1_815_941)">
<mask id="path-55-inside-2_815_941" fill="white">
<path d="M0 344H119V729H0V344Z"/>
</mask>
<line x1="-60.35" y1="389.124" x2="135.129" y2="297.97" stroke="#999999"/>
<line x1="-60.35" y1="620.513" x2="135.129" y2="529.359" stroke="#999999"/>
<line x1="-60.35" y1="504.818" x2="135.129" y2="413.664" stroke="#999999"/>
<line x1="-60.35" y1="736.207" x2="135.129" y2="645.054" stroke="#999999"/>
<line x1="-60.35" y1="405.651" x2="135.129" y2="314.498" stroke="#999999"/>
<line x1="-60.35" y1="637.04" x2="135.129" y2="545.887" stroke="#999999"/>
<line x1="-60.35" y1="521.346" x2="135.129" y2="430.192" stroke="#999999"/>
<line x1="-60.35" y1="752.735" x2="135.129" y2="661.581" stroke="#999999"/>
<line x1="-60.35" y1="422.179" x2="135.129" y2="331.026" stroke="#999999"/>
<line x1="-60.35" y1="653.568" x2="135.129" y2="562.414" stroke="#999999"/>
<line x1="-60.35" y1="537.874" x2="135.129" y2="446.72" stroke="#999999"/>
<line x1="-60.35" y1="769.263" x2="135.129" y2="678.109" stroke="#999999"/>
<line x1="-60.35" y1="438.707" x2="135.129" y2="347.554" stroke="#999999"/>
<line x1="-60.35" y1="670.096" x2="135.129" y2="578.942" stroke="#999999"/>
<line x1="-60.35" y1="554.401" x2="135.129" y2="463.248" stroke="#999999"/>
<line x1="-60.35" y1="785.79" x2="135.129" y2="694.637" stroke="#999999"/>
<line x1="-60.35" y1="455.235" x2="135.129" y2="364.081" stroke="#999999"/>
<line x1="-60.35" y1="686.624" x2="135.129" y2="595.47" stroke="#999999"/>
<line x1="-60.35" y1="570.929" x2="135.129" y2="479.776" stroke="#999999"/>
<line x1="-60.35" y1="802.318" x2="135.129" y2="711.164" stroke="#999999"/>
<line x1="-60.35" y1="471.763" x2="135.129" y2="380.609" stroke="#999999"/>
<line x1="-60.35" y1="703.151" x2="135.129" y2="611.998" stroke="#999999"/>
<line x1="-60.35" y1="587.457" x2="135.129" y2="496.304" stroke="#999999"/>
<line x1="-60.35" y1="818.846" x2="135.129" y2="727.692" stroke="#999999"/>
<line x1="-60.35" y1="488.29" x2="135.129" y2="397.137" stroke="#999999"/>
<line x1="-60.35" y1="719.679" x2="135.129" y2="628.526" stroke="#999999"/>
<line x1="-60.35" y1="603.985" x2="135.129" y2="512.831" stroke="#999999"/>
</g>
<path d="M0 344V345H119V344V343H0V344ZM119 729V728H0V729V730H119V729Z" fill="#999999" mask="url(#path-55-inside-2_815_941)"/>
</g>
<defs>
<clipPath id="clip0_815_941">
<path d="M1394 344H1513V729H1394V344Z" fill="white"/>
</clipPath>
<clipPath id="clip1_815_941">
<path d="M0 344H119V729H0V344Z" fill="white"/>
</clipPath>
</defs>
</svg>
