<svg width="1440" height="900" viewBox="0 0 1440 900" fill="none" xmlns="http://www.w3.org/2000/svg">
<g clip-path="url(#clip0_811_307)">
<g opacity="0.12">
<path d="M1003.51 1.25049C1012.99 0.472001 1027.05 -0.237947 1045.33 0.0395508C1081.33 0.585886 1133.73 4.95836 1199.89 20.1665L1203.05 20.8989C1270.69 36.7134 1329.87 58.1338 1372.14 75.6011C1393.28 84.3344 1410.19 92.0785 1421.81 97.6392C1424.11 98.7407 1426.21 99.7594 1428.09 100.68C1421.61 98.0873 1412.67 94.6092 1401.62 90.5493C1377.16 81.5601 1342.35 69.7128 1300.91 58.2798C1218.06 35.4156 1108.71 14.1988 1002.85 20.8257L1002.58 20.8423L1002.45 21.0728C985.854 49.4601 949.807 93.716 931.364 114.577L931.111 114.863L931.32 115.182C942.129 131.667 953.903 148.074 960.54 169.789C967.068 191.145 968.633 217.669 959.309 254.445L958.856 256.204C939.239 331.461 860.235 374.548 788.583 349.945L788.575 349.942L788.567 349.94L775.883 346.003C714.155 326.791 669.044 312.586 606.387 322.594L604.804 322.851L604.79 322.854C572.044 329.227 536.121 353.426 504.054 387.068C473.924 418.677 447.152 458.67 429.571 500.188C439.71 466.293 461.153 419.885 493.549 380.359C528.704 337.466 576.706 302.735 637.108 300.8L637.177 299.807C557.775 286.291 504.505 308.746 471.085 334.613C454.382 347.541 442.645 361.314 435.083 371.858C431.302 377.13 428.563 381.596 426.77 384.746C426.746 384.787 426.722 384.828 426.699 384.869C426.798 384.589 426.899 384.299 427.008 384C428.401 380.151 430.627 374.696 433.957 368.28C440.617 355.447 451.688 338.776 469.334 323.43C504.605 292.756 566.227 267.301 671.621 288.539V288.54C702.959 294.904 733.786 303.68 763.875 314.8V314.799C803.883 330.427 838.645 329.386 866.441 318.117C894.233 306.849 915.019 285.372 927.108 260.206C951.09 210.284 940.89 145.692 883.1 117.385L881.726 116.723C857.348 105.034 827.664 101.057 795.533 101.005C763.398 100.954 728.766 104.831 694.476 108.886L694.149 108.925L694.056 109.239C691.692 117.069 689.112 123.716 682.753 128.357L682.126 128.8C680.46 129.938 677.931 130.834 674.912 131.555C671.904 132.273 668.46 132.806 664.996 133.24C661.532 133.673 658.065 134.006 655.006 134.327C652.339 134.606 649.97 134.878 648.205 135.202L647.487 135.343C640.474 136.831 617.678 142.871 600.616 154.8C600.445 154.121 600.166 153.336 599.807 152.48C599.294 151.259 598.609 149.859 597.812 148.361C596.219 145.363 594.169 141.943 592.148 138.72C590.127 135.496 588.129 132.463 586.638 130.236C585.955 129.217 585.378 128.367 584.953 127.745C585.629 127.912 586.565 128.112 587.792 128.298C590.528 128.714 594.709 129.077 600.673 128.933L601.89 128.897C608.584 128.673 616.61 126.219 623.008 123.752C626.213 122.517 629.024 121.273 631.072 120.292C632.096 119.802 632.933 119.376 633.535 119.049C633.835 118.886 634.082 118.746 634.266 118.632C634.357 118.576 634.438 118.523 634.504 118.476C634.531 118.456 634.565 118.431 634.6 118.402L634.701 118.303V118.302C635.023 117.923 635.455 117.294 635.361 116.481C635.27 115.688 634.702 114.894 633.499 114.094C633.315 113.656 633.396 113.101 633.799 112.401C634.231 111.649 634.98 110.835 635.894 110.03C637.487 108.625 639.493 107.326 640.902 106.529L641.467 106.218C641.87 106.005 642.568 105.486 643.445 104.784C644.338 104.07 645.454 103.134 646.711 102.056C649.227 99.8996 652.319 97.1622 655.336 94.4604C658.359 91.7529 661.301 89.0865 663.519 87.0708L667.352 83.5854L667.373 83.5659C667.517 83.4285 667.65 83.2838 667.764 83.1646C667.883 83.0401 667.994 82.9293 668.12 82.8247C668.352 82.6327 668.661 82.4427 669.177 82.2798C669.522 82.3001 670.005 82.4077 670.61 82.604C671.253 82.8123 672 83.1089 672.813 83.4673C674.44 84.1842 676.303 85.1369 678.067 86.0913C679.831 87.0449 681.49 87.9967 682.708 88.7104C683.317 89.0672 683.816 89.3641 684.162 89.5718C684.335 89.6756 684.47 89.7575 684.562 89.813C684.607 89.8404 684.642 89.8613 684.665 89.8755C684.677 89.8826 684.687 89.8885 684.692 89.8921C684.695 89.8937 684.697 89.8952 684.698 89.896L684.7 89.897L684.854 89.9907L685.031 89.9653L684.961 89.4712C685.025 89.9221 685.031 89.9619 685.032 89.9653H685.037C685.041 89.9648 685.046 89.9633 685.053 89.9624C685.065 89.9605 685.084 89.9583 685.107 89.9546C685.156 89.9471 685.227 89.9359 685.319 89.9204C685.505 89.8893 685.777 89.8406 686.127 89.772C686.828 89.6346 687.843 89.4155 689.106 89.0854C691.633 88.4254 695.158 87.3227 699.158 85.5513C706.668 82.2255 715.869 76.5339 723.283 66.9731C723.229 67.368 723.185 67.7712 723.146 68.1812C723.02 69.4701 722.93 70.8319 722.678 72.3296C722.178 75.2961 721.042 78.771 717.725 82.8394L716.984 83.7466L718.152 83.6538C724.391 83.1571 730.567 81.6263 736.991 77.9048C743.143 74.3409 749.498 68.7799 756.351 60.2388C756.237 66.1897 754.733 70.536 753.211 73.436C752.39 75.0009 751.563 76.1474 750.945 76.8989C750.637 77.2745 750.381 77.5518 750.204 77.7329C750.116 77.8234 750.046 77.8901 750.001 77.9331C749.979 77.9542 749.962 77.9693 749.951 77.979C749.946 77.9839 749.942 77.9878 749.939 77.9897L749.938 77.9907L749.025 78.7935L750.238 78.8657L750.269 78.3667C750.24 78.8458 750.239 78.8649 750.239 78.8657H750.245C750.249 78.8659 750.255 78.8663 750.263 78.8667C750.277 78.8675 750.299 78.8684 750.326 78.8696C750.382 78.8721 750.463 78.8762 750.568 78.8794C750.78 78.8858 751.09 78.891 751.488 78.8901C752.284 78.8883 753.431 78.8591 754.846 78.7476C757.675 78.5245 761.58 77.9742 765.884 76.6646C774.095 74.1659 783.782 68.8943 790.207 57.8472C790.146 63.3348 788.769 67.251 787.352 69.8433C786.564 71.2835 785.762 72.3197 785.161 72.9917C784.861 73.3276 784.611 73.5719 784.438 73.731C784.352 73.8104 784.286 73.8686 784.242 73.9058C784.221 73.9241 784.204 73.9376 784.194 73.9458C784.189 73.9498 784.186 73.953 784.184 73.9546L784.182 73.9556L784.184 73.9575L784.572 74.8433L784.489 74.3501C784.572 74.8431 784.573 74.8433 784.573 74.8433L784.574 74.8423C784.575 74.8421 784.577 74.8417 784.58 74.8413C784.586 74.8404 784.594 74.8392 784.605 74.8374C784.628 74.8337 784.664 74.8281 784.71 74.8208C784.803 74.8063 784.942 74.7851 785.128 74.7583C785.5 74.7046 786.056 74.6291 786.788 74.5415C788.253 74.3662 790.425 74.1436 793.246 73.9546C798.889 73.5765 807.128 73.3332 817.5 73.8765C838.245 74.963 867.523 79.1942 901.629 91.7759L901.651 91.7837L901.675 91.7905C913.652 94.9501 925.105 91.9275 935.522 85.4126C945.933 78.9021 955.338 68.8883 963.266 57.9966C971.196 47.1011 977.668 35.3021 982.204 25.1919C984.472 20.1364 986.259 15.4978 987.503 11.6011C988.667 7.95516 989.364 4.92906 989.525 2.81006C989.662 2.78844 989.835 2.76132 990.043 2.72998C990.649 2.63873 991.557 2.50936 992.762 2.35498C995.172 2.04615 998.768 1.63973 1003.51 1.25049ZM987.162 57.3286C987.711 57.5033 988.53 57.7714 989.612 58.1431C991.776 58.8863 994.988 60.0448 999.174 61.7036C1007.55 65.0213 1019.81 70.3406 1035.38 78.3423C1066.04 94.0955 1109.49 120.246 1161.21 161.993L1163.68 163.993C1217.46 207.714 1256.61 250.888 1282.31 283.129C1295.16 299.25 1304.65 312.636 1310.92 321.991C1313.27 325.488 1315.17 328.422 1316.62 330.724C1315.98 329.961 1315.27 329.122 1314.49 328.209C1310.15 323.135 1303.73 315.793 1295.4 306.726C1278.73 288.592 1254.39 263.55 1223.71 235.916C1162.48 180.756 1075.98 115.25 974.792 73.7368L986.678 57.1763C986.804 57.2154 986.966 57.2661 987.162 57.3286ZM1006.4 30.5874C1007.11 30.7158 1008.18 30.9112 1009.58 31.1792C1012.38 31.7152 1016.51 32.5416 1021.83 33.7007C1032.46 36.019 1047.85 39.6704 1066.86 45.0005C1104.27 55.4943 1155.7 72.4948 1212.46 98.6431L1215.16 99.895C1272.98 126.749 1328.02 162.843 1368.61 192.229C1388.9 206.921 1405.58 219.934 1417.19 229.274C1421.01 232.352 1424.28 235.033 1426.95 237.242C1426.62 237.015 1426.28 236.781 1425.93 236.542C1419.41 232.096 1409.86 225.704 1397.7 217.918C1373.39 202.346 1338.7 181.197 1297.15 158.888C1214.25 114.378 1104.02 65.2322 994.517 46.5601L1005.63 30.4517C1005.81 30.4829 1006.07 30.5279 1006.4 30.5874ZM658.751 102.321C658.298 102.259 657.791 102.454 657.318 102.707C656.337 103.231 655.059 104.261 653.683 105.457C650.882 107.889 647.606 111.065 645.12 112.75L645.016 112.821L644.957 112.933C644.856 113.129 644.722 113.368 644.64 113.576C644.558 113.782 644.47 114.089 644.592 114.407C644.718 114.734 645.007 114.922 645.312 115.042C645.623 115.163 646.043 115.25 646.585 115.317L646.92 115.359L647.084 115.064C647.319 114.642 647.513 114.41 647.632 114.292C647.676 114.249 647.71 114.222 647.732 114.206C647.776 114.195 647.834 114.182 647.905 114.165C648.072 114.124 648.313 114.064 648.608 113.988C649.199 113.835 650.01 113.613 650.893 113.338C652.524 112.83 654.477 112.118 655.704 111.293L655.939 111.126H655.94C657.153 110.222 658.152 108.767 658.814 107.335C659.429 106.008 659.801 104.601 659.727 103.583L659.706 103.385L659.705 103.377L659.666 103.188C659.617 103.001 659.537 102.826 659.411 102.677C659.235 102.469 659.002 102.355 658.751 102.321ZM850.942 29.4419C790.533 34.5448 734.259 49.6247 683.899 79.4722L676.041 75.8726C676.075 75.851 676.11 75.829 676.146 75.8062C676.725 75.4412 677.59 74.9055 678.731 74.2241C681.013 72.8614 684.4 70.9161 688.813 68.5923C697.641 63.9446 710.574 57.7809 726.988 51.7222C757.573 40.4329 800.238 29.5129 850.942 29.4419Z" fill="#999999" stroke="#999999"/>
<path d="M894.003 75.5161C887.107 77.4381 878.106 80.0182 867.339 83.2603C840.793 91.2535 803.51 103.27 760.559 119.364C674.662 151.55 566.069 200.054 475.346 265.316L475.135 265.468L475.138 265.727C475.423 294.371 466.821 344.879 461.47 369.528L461.368 369.994L461.829 370.117C480.205 375.016 499.385 379.306 516.806 390.116C533.928 400.741 549.375 417.685 560.575 447.785L561.105 449.228C572.317 480.15 566.089 514.21 547.417 543.64C529.036 572.61 498.61 597.065 460.971 609.559L459.173 610.145L459.161 610.149C387.02 635.219 336.343 650.756 282.5 696.339L281.228 697.422L281.219 697.43C255.463 720.517 236.317 757.448 225.613 798.549C215.516 837.324 212.921 879.859 219.407 918.08C210.381 889.451 204.756 845.693 212.659 800.259C221.193 751.2 245.492 700.214 298.281 664.191L297.787 663.325C219.963 699.807 184.461 745.509 168.429 782.137C160.415 800.446 157.272 816.475 156.133 827.933C155.563 833.662 155.495 838.248 155.569 841.406C155.573 841.556 155.578 841.703 155.582 841.846C155.505 841.539 155.425 841.216 155.345 840.877C154.545 837.492 153.634 832.546 153.194 826.32C152.316 813.868 153.325 796.292 160.889 775.827C176.013 734.908 217.381 682.34 322.529 636.091V636.092C353.815 622.377 385.924 610.579 418.621 600.787L418.62 600.786C506.389 575.899 540.109 518.158 534.915 470.242C532.32 446.298 520.002 424.847 499.9 411.268C480.11 397.899 452.815 392.187 419.904 399.18L418.333 399.522C390.453 405.643 361.935 420.001 333.307 438.418C304.676 456.837 275.904 479.338 247.524 501.767L247.256 501.98L247.356 502.307C249.401 508.922 250.626 514.844 247.438 521.6L247.116 522.257C246.235 523.983 244.455 526.045 242.145 528.269C239.844 530.484 237.056 532.824 234.201 535.107C231.346 537.389 228.434 539.605 225.882 541.578C223.338 543.543 221.14 545.275 219.736 546.574C214.278 551.608 197.137 568.821 188.291 586.693C187.763 586.315 187.072 585.932 186.272 585.549C185.166 585.02 183.811 584.47 182.306 583.917C179.295 582.813 175.656 581.686 172.146 580.675C168.635 579.664 165.247 578.768 162.737 578.125C161.733 577.867 160.869 577.652 160.194 577.484C160.865 577.212 161.752 576.826 162.858 576.289C165.507 575.001 169.415 572.848 174.644 569.328L175.707 568.606C181.532 564.621 187.368 558.367 191.756 553.031C193.953 550.358 195.795 547.907 197.098 546.071C197.749 545.153 198.268 544.385 198.63 543.82C198.811 543.538 198.954 543.301 199.058 543.12C199.109 543.029 199.154 542.948 199.188 542.877C199.201 542.85 199.218 542.812 199.234 542.77L199.275 542.632C199.36 542.197 199.43 541.448 198.853 540.893C198.317 540.379 197.375 540.185 195.909 540.335C195.732 540.253 195.609 540.135 195.522 539.978C195.416 539.785 195.349 539.512 195.343 539.15C195.329 538.418 195.559 537.452 195.945 536.384C196.618 534.527 197.713 532.501 198.545 531.154L198.884 530.62C199.129 530.245 199.475 529.494 199.884 528.516C200.3 527.522 200.798 526.25 201.346 524.801C202.441 521.903 203.742 518.281 204.994 514.728C206.247 511.174 207.452 507.686 208.358 505.049C208.812 503.731 209.19 502.625 209.462 501.832C209.598 501.435 209.706 501.116 209.785 500.888C209.824 500.774 209.857 500.683 209.88 500.617C209.892 500.583 209.901 500.556 209.908 500.536C209.912 500.526 209.915 500.517 209.917 500.511C209.918 500.508 209.919 500.506 209.92 500.504V500.502L209.921 500.501L209.931 500.472C209.987 500.295 210.03 500.118 210.067 499.974C210.107 499.823 210.145 499.688 210.201 499.547C210.305 499.287 210.481 498.976 210.868 498.556C211.573 498.139 212.989 497.684 214.802 497.237C216.635 496.784 218.802 496.356 220.881 495.985C222.958 495.614 224.942 495.303 226.406 495.083C227.138 494.974 227.74 494.888 228.159 494.829C228.368 494.799 228.532 494.776 228.643 494.761C228.698 494.754 228.741 494.748 228.77 494.745C228.784 494.743 228.795 494.741 228.802 494.74C228.805 494.739 228.808 494.739 228.81 494.739H228.812L228.953 494.72L229.063 494.629L228.746 494.243C229.03 494.587 229.06 494.625 229.063 494.628H229.064C229.065 494.628 229.067 494.627 229.068 494.625C229.071 494.623 229.075 494.62 229.08 494.616C229.09 494.607 229.105 494.595 229.124 494.579C229.163 494.546 229.22 494.498 229.294 494.435C229.442 494.308 229.657 494.12 229.932 493.874C230.481 493.38 231.267 492.65 232.216 491.703C234.113 489.809 236.664 487.045 239.283 483.556C244.223 476.978 249.426 467.796 250.929 457.006C251.102 457.33 251.291 457.651 251.487 457.973C252.064 458.92 252.699 459.879 253.265 461.025C254.378 463.279 255.207 466.24 254.417 470.862L254.207 472.089L255.208 471.348C260.486 467.44 265.165 462.87 268.907 456.676C272.51 450.713 275.23 443.268 276.797 433.498C279.872 437.57 280.836 441.357 281.02 444.172C281.118 445.685 280.992 446.922 280.842 447.777C280.767 448.204 280.687 448.536 280.626 448.757C280.596 448.868 280.57 448.951 280.553 449.005C280.544 449.032 280.537 449.052 280.533 449.064C280.531 449.07 280.529 449.075 280.528 449.078V449.079L280.059 450.372L281.249 449.682L280.998 449.25L281.249 449.681H281.251C281.252 449.681 281.253 449.679 281.255 449.678C281.258 449.676 281.263 449.673 281.27 449.669C281.283 449.662 281.302 449.65 281.327 449.635C281.377 449.605 281.451 449.562 281.546 449.503C281.737 449.387 282.015 449.213 282.367 448.985C283.072 448.528 284.076 447.851 285.273 446.965C287.669 445.194 290.848 442.585 293.98 439.236C299.973 432.828 305.843 423.654 305.647 412.411C308.543 416.153 309.397 419.587 309.51 422.139C309.572 423.548 309.41 424.696 309.233 425.488C309.145 425.883 309.054 426.19 308.985 426.394C308.951 426.496 308.922 426.572 308.903 426.622C308.894 426.646 308.886 426.665 308.882 426.676C308.88 426.682 308.878 426.685 308.877 426.687V426.689L308.88 426.69L309.661 427.266L309.336 426.887C309.662 427.266 309.662 427.266 309.662 427.266L309.663 427.265C309.664 427.264 309.666 427.263 309.668 427.261C309.672 427.257 309.679 427.251 309.688 427.244C309.707 427.228 309.735 427.204 309.772 427.172C309.848 427.109 309.962 427.014 310.113 426.889C310.416 426.639 310.871 426.268 311.478 425.788C312.69 424.827 314.508 423.428 316.921 421.679C321.747 418.181 328.958 413.282 338.486 407.687C357.543 396.497 385.867 382.525 422.924 371.407L422.942 371.401L422.96 371.394C447.56 361.923 457.251 337.053 459.81 313.269C461.09 301.362 460.591 289.684 459.264 280.256C458.6 275.542 457.727 271.384 456.765 268.036C455.882 264.966 454.912 262.54 453.937 260.995C454.044 260.904 454.176 260.793 454.335 260.661C454.827 260.251 455.567 259.641 456.559 258.844C458.542 257.251 461.529 254.91 465.545 251.923C473.576 245.951 485.717 237.397 502.148 227.079C535.012 206.441 585.038 178.745 653.669 150.525L653.668 150.524C722.286 122.325 786.351 102.762 833.262 90.2476C856.716 83.9904 875.882 79.4959 889.183 76.5659C890.887 76.1905 892.495 75.8406 894.003 75.5161ZM212.908 517.757C212.656 517.721 212.417 517.775 212.207 517.88C211.81 518.079 211.473 518.478 211.182 518.927C210.587 519.844 209.994 521.274 209.402 522.872C208.198 526.123 206.969 530.138 205.651 532.699L205.587 532.824L205.597 532.963C205.61 533.142 205.618 533.397 205.657 533.596C205.698 533.802 205.799 534.117 206.124 534.286C206.419 534.439 206.76 534.394 207.064 534.307C207.308 534.238 207.599 534.121 207.946 533.956L208.312 533.774L208.595 533.628L208.584 533.311C208.57 532.906 208.617 532.651 208.658 532.512C208.674 532.458 208.69 532.421 208.7 532.399C208.734 532.367 208.782 532.321 208.842 532.263C208.969 532.14 209.151 531.962 209.373 531.742C209.817 531.3 210.42 530.686 211.059 529.995C212.239 528.718 213.597 527.12 214.252 525.86L214.373 525.613C214.978 524.296 215.099 522.722 214.927 521.353C214.84 520.665 214.677 520.014 214.454 519.458C214.261 518.976 214.014 518.54 213.709 518.215L213.574 518.083L213.568 518.078L213.421 517.963C213.268 517.859 213.096 517.785 212.908 517.757ZM342.921 359.685C292.634 397.484 251.162 439.557 222.497 488.041L213.68 490.108C214.001 489.533 214.468 488.711 215.084 487.661C216.393 485.432 218.376 482.176 221.072 478.075C226.466 469.873 234.711 458.289 246.112 444.777C267.079 419.927 298.718 388.555 342.921 359.685ZM694.593 269.535C765.689 268.095 823.457 274.696 863.448 281.656C883.444 285.136 898.995 288.705 909.544 291.404C913.152 292.327 916.174 293.151 918.59 293.832C917.738 293.707 916.814 293.573 915.819 293.432C909.267 292.503 899.658 291.244 887.427 289.923C862.963 287.281 828.007 284.391 786.034 283.393C702.265 281.402 590.526 286.952 478.443 317.088L480.217 299.269C480.358 299.22 480.55 299.155 480.791 299.073C481.373 298.875 482.246 298.584 483.407 298.212C485.73 297.47 489.207 296.405 493.816 295.118C503.035 292.543 516.785 289.077 534.897 285.524C570.557 278.528 623.129 271.187 691.333 269.606L694.593 269.535ZM966.179 167.685C958.023 168.435 946.21 169.612 931.404 171.331C901.502 174.801 859.394 180.48 810.565 189.316C713.149 206.944 588.958 237.141 481.58 287.444L482.912 270.381C482.914 270.381 482.916 270.381 482.917 270.38C483.095 270.297 483.362 270.174 483.715 270.011C484.422 269.686 485.476 269.204 486.865 268.581C489.643 267.333 493.76 265.518 499.11 263.244C509.812 258.695 525.453 252.315 545.203 244.99C584.088 230.567 638.901 212.481 703.316 197.495L706.391 196.784C772.127 181.664 840.29 174.367 892.024 170.85C917.89 169.092 939.646 168.278 954.936 167.905C959.204 167.8 962.97 167.732 966.179 167.685Z" fill="#999999" stroke="#999999"/>
<path d="M168.178 457.65H1060.29" stroke="#999999"/>
<path d="M69.1504 745.65H1159.32" stroke="#999999"/>
<path d="M69.1504 688.05H1159.32" stroke="#999999"/>
<path d="M168.178 400.05H1060.29" stroke="#999999"/>
<path d="M168.178 630.45H1060.29" stroke="#999999"/>
<path d="M69.1504 342.45H1159.32" stroke="#999999"/>
<path d="M168.178 572.85H1060.29" stroke="#999999"/>
<path d="M69.1504 860.85H1159.32" stroke="#999999"/>
<path d="M168.178 515.25H1060.29" stroke="#999999"/>
<path d="M69.1504 803.25H1159.32" stroke="#999999"/>
<path d="M0 256.05H1229.32" stroke="#999999"/>
<path d="M0 104.85H1229.32" stroke="#999999"/>
<path d="M0 32.8501L1229.32 32.8502" stroke="#999999"/>
<path d="M564.721 746.1V514.8" stroke="#999999"/>
<path d="M861.809 746.1V514.8" stroke="#999999"/>
<path d="M366.664 746.1V514.8" stroke="#999999"/>
<path d="M1158.89 942.3V104.4" stroke="#999999"/>
<path d="M267.635 861.3V401.4" stroke="#999999"/>
<path d="M1059.87 942.3V255.6" stroke="#999999"/>
<path d="M168.605 942.3V255.6" stroke="#999999"/>
<path d="M663.75 746.1V514.8" stroke="#999999"/>
<path d="M960.836 861.3V401.4" stroke="#999999"/>
<mask id="mask0_811_307" style="mask-type:luminance" maskUnits="userSpaceOnUse" x="1158" y="342" width="103" height="347">
<path d="M1259.56 342.5V688H1158.97V342.5H1259.56Z" fill="white" stroke="white"/>
</mask>
<g mask="url(#mask0_811_307)">
<path d="M1106.95 382.611L1273.83 300.573" stroke="#999999"/>
<path d="M1106.95 590.86L1273.83 508.823" stroke="#999999"/>
<path d="M1106.95 486.736L1273.83 404.698" stroke="#999999"/>
<path d="M1106.95 694.986L1273.83 612.947" stroke="#999999"/>
<path d="M1106.95 397.485L1273.83 315.448" stroke="#999999"/>
<path d="M1106.95 605.736L1273.83 523.698" stroke="#999999"/>
<path d="M1106.95 501.611L1273.83 419.573" stroke="#999999"/>
<path d="M1106.95 709.861L1273.83 627.823" stroke="#999999"/>
<path d="M1106.95 412.361L1273.83 330.323" stroke="#999999"/>
<path d="M1106.95 620.611L1273.83 538.572" stroke="#999999"/>
<path d="M1106.95 516.486L1273.83 434.448" stroke="#999999"/>
<path d="M1106.95 724.735L1273.83 642.698" stroke="#999999"/>
<path d="M1106.95 427.236L1273.83 345.197" stroke="#999999"/>
<path d="M1106.95 635.486L1273.83 553.448" stroke="#999999"/>
<path d="M1106.95 531.36L1273.83 449.323" stroke="#999999"/>
<path d="M1106.95 739.611L1273.83 657.573" stroke="#999999"/>
<path d="M1106.95 442.111L1273.83 360.073" stroke="#999999"/>
<path d="M1106.95 650.361L1273.83 568.323" stroke="#999999"/>
<path d="M1106.95 546.236L1273.83 464.198" stroke="#999999"/>
<path d="M1106.95 754.486L1273.83 672.447" stroke="#999999"/>
<path d="M1106.95 456.986L1273.83 374.948" stroke="#999999"/>
<path d="M1106.95 665.235L1273.83 583.198" stroke="#999999"/>
<path d="M1106.95 561.111L1273.83 479.072" stroke="#999999"/>
<path d="M1106.95 769.361L1273.83 687.323" stroke="#999999"/>
<path d="M1106.95 471.861L1273.83 389.823" stroke="#999999"/>
<path d="M1106.95 680.111L1273.83 598.073" stroke="#999999"/>
<path d="M1106.95 575.986L1273.83 493.948" stroke="#999999"/>
</g>
<mask id="mask1_811_307" style="mask-type:luminance" maskUnits="userSpaceOnUse" x="1158" y="342" width="103" height="347">
<g opacity="0.12">
<path d="M1259.56 342.5V688H1158.97V342.5H1259.56Z" fill="white" stroke="#999999"/>
</g>
</mask>
<g mask="url(#mask1_811_307)">
<path d="M1259.56 688.1V688.9H1158.97V688.1H1259.56ZM1259.56 341.6V342.4H1158.97V341.6H1259.56Z" fill="#999999" stroke="#999999"/>
</g>
</g>
</g>
<defs>
<clipPath id="clip0_811_307">
<rect width="1440" height="900" fill="white"/>
</clipPath>
</defs>
</svg>
