<svg width="136" height="96" viewBox="0 0 136 96" fill="none" xmlns="http://www.w3.org/2000/svg">
<g clip-path="url(#clip0_45_670)">
<mask id="mask0_45_670" style="mask-type:alpha" maskUnits="userSpaceOnUse" x="28" y="-1" width="81" height="97">
<path d="M30.8175 26.0062V7.89349C30.8571 3.82199 34.0116 0.543343 37.8891 0.543343H44.503C48.409 0.543343 51.5752 3.86818 51.5752 7.96951V26.0062M30.227 65.8328V68.4186C30.2032 70.8673 31.3303 73.1707 33.24 74.5762L40.4438 79.8782C45.1308 83.3271 51.5752 79.8063 51.5752 73.7966V65.8328" stroke="#FC2F61" stroke-width="3"/>
<path d="M58.5905 26.1548V17.5982C58.5905 13.9524 61.7513 10.9969 65.6502 10.9969H72.1931C76.0921 10.9969 79.2528 13.9524 79.2528 17.5982V26.1548M58.5905 65.8328V84.6524C58.5905 86.7923 59.7 88.8 61.567 90.0373L65.1399 92.4061C67.6825 94.0919 71.1065 94.0188 73.5645 92.2266L76.5347 90.0602C78.25 88.8092 79.2528 86.8886 79.2528 84.8548V65.8328" stroke="#FC2F61" stroke-width="3"/>
<path d="M86.0739 26.3034V7.96952C86.0739 3.86818 89.2401 0.543343 93.1461 0.543343H99.7006C103.607 0.543343 106.773 3.86818 106.773 7.96952V26.3034M86.0739 65.8328V73.3859C86.0739 79.4687 92.6573 82.9713 97.3287 79.3739L103.883 74.326C105.7 72.9267 106.773 70.703 106.773 68.3374V65.8328" stroke="#FC2F61" stroke-width="3"/>
</mask>
<g mask="url(#mask0_45_670)">
<path d="M118.33 -55.787H29.6689V97.0836H118.33V-55.787Z" fill="#FB2C36"/>
</g>
<path d="M14.2463 42.3836V30.2118H16.0015L20.9031 37.2019H20.191L25.1091 30.2118H26.8313V42.3836H25.0429V37.289C25.0429 36.2919 25.065 35.3762 25.1091 34.5416C25.1533 33.6954 25.2416 32.8433 25.3741 31.9855L25.5728 32.6638L21.0687 38.8886H19.9758L15.5213 32.6986L15.7035 31.9855C15.8249 32.8201 15.9077 33.6606 15.9519 34.5068C16.0071 35.3414 16.0347 36.2687 16.0347 37.289V42.3836H14.2463ZM37.3374 42.5574C36.3881 42.5574 35.516 42.4011 34.7212 42.0881C33.9372 41.7633 33.2471 41.3172 32.651 40.7492C32.066 40.1812 31.6134 39.5205 31.2933 38.7668C30.9731 38.0017 30.8129 37.1788 30.8129 36.2978C30.8129 35.4169 30.9731 34.5995 31.2933 33.8461C31.6134 33.0811 32.066 32.4144 32.651 31.8464C33.2471 31.2785 33.9372 30.838 34.7212 30.525C35.516 30.2002 36.3881 30.0379 37.3374 30.0379C38.2868 30.0379 39.1534 30.1945 39.9372 30.5075C40.732 30.8205 41.4221 31.2669 42.0071 31.8464C42.6032 32.4144 43.0615 33.0811 43.3816 33.8461C43.7127 34.5995 43.8783 35.4169 43.8783 36.2978C43.8783 37.1788 43.7127 38.0017 43.3816 38.7668C43.0615 39.5205 42.6032 40.1869 42.0071 40.7664C41.4221 41.3344 40.732 41.7752 39.9372 42.0881C39.1534 42.4011 38.2868 42.5574 37.3374 42.5574ZM37.3374 40.7316C38.0329 40.7316 38.6621 40.6217 39.2253 40.4014C39.7994 40.1696 40.2961 39.8566 40.7156 39.4622C41.1461 39.0566 41.4773 38.5872 41.7091 38.054C41.9409 37.5093 42.0569 36.9237 42.0569 36.2978C42.0569 35.6719 41.9409 35.0923 41.7091 34.5588C41.4773 34.014 41.1461 33.5447 40.7156 33.1506C40.2961 32.7449 39.7994 32.4317 39.2253 32.2114C38.6621 31.9796 38.0329 31.8637 37.3374 31.8637C36.653 31.8637 36.0238 31.9796 35.4498 32.2114C34.8758 32.4317 34.3734 32.739 33.9429 33.1331C33.5234 33.5272 33.1976 33.9968 32.9658 34.5416C32.745 35.0748 32.6346 35.6603 32.6346 36.2978C32.6346 36.9237 32.745 37.5093 32.9658 38.054C33.1976 38.5988 33.5234 39.0681 33.9429 39.4622C34.3734 39.8566 34.8758 40.1696 35.4498 40.4014C36.0238 40.6217 36.653 40.7316 37.3374 40.7316ZM46.0207 42.3836V41.0098L53.8531 31.7246L54.3502 32.0376H46.4512V30.2118H56.3205V31.5683L48.5047 40.8707L48.008 40.5578H56.5027V42.3836H46.0207ZM65.5418 42.5574C64.6584 42.5574 63.8362 42.4127 63.0745 42.1229C62.3125 41.8215 61.6448 41.3924 61.0708 40.836C60.5076 40.2796 60.066 39.6189 59.7459 38.8539C59.4258 38.0772 59.2658 37.2251 59.2658 36.2978C59.2658 35.4169 59.4314 34.5995 59.7626 33.8461C60.1048 33.0927 60.5627 32.4376 61.137 31.8812C61.7221 31.3132 62.3955 30.8784 63.1571 30.577C63.9188 30.2641 64.7303 30.1074 65.5913 30.1074C66.2757 30.1074 66.9327 30.2061 67.5619 30.4032C68.1911 30.6002 68.7598 30.8552 69.2675 31.1682C69.7864 31.4696 70.2058 31.8001 70.526 32.1594L69.4164 33.6547C69.0411 33.307 68.6494 33.0115 68.2409 32.7681C67.8435 32.5128 67.413 32.3157 66.9491 32.1766C66.4965 32.0376 66.0108 31.968 65.492 31.968C64.918 31.968 64.366 32.0723 63.8362 32.281C63.3174 32.478 62.8481 32.7681 62.4286 33.1506C62.0201 33.5331 61.6944 33.9908 61.4515 34.524C61.2087 35.0575 61.0872 35.6487 61.0872 36.2978C61.0872 37.0049 61.2087 37.6308 61.4515 38.1756C61.7054 38.7204 62.0476 39.1841 62.4781 39.5669C62.9086 39.9378 63.4 40.2216 63.9519 40.4187C64.5149 40.6157 65.111 40.7144 65.7405 40.7144C66.2924 40.7144 66.7946 40.6389 67.2472 40.4882C67.7111 40.3259 68.1305 40.1289 68.5059 39.8971C68.8812 39.6537 69.2177 39.3986 69.5161 39.132L70.3935 40.6796C70.1065 40.9694 69.7091 41.2592 69.2013 41.549C68.7046 41.8388 68.1416 42.0822 67.5124 42.2792C66.8829 42.4647 66.2262 42.5574 65.5418 42.5574ZM78.2107 42.3836V36.7151L78.4589 37.8802L72.7957 30.2118H75.1637L79.3366 36.0892L78.9392 36.0544L82.9299 30.2118H85.0827L79.8501 37.654L79.9989 36.576V42.3836H78.2107ZM88.3211 42.3836V30.2118H94.1003C94.9944 30.2118 95.7397 30.3336 96.3358 30.577C96.9319 30.8089 97.3845 31.151 97.6936 31.603C98.0026 32.0551 98.1572 32.6115 98.1572 33.2722C98.1572 33.9213 97.9641 34.4777 97.5778 34.9416C97.1911 35.4053 96.6338 35.7355 95.9053 35.9325L95.9879 35.5848C96.4847 35.7007 96.9429 35.8978 97.3624 36.176C97.7929 36.4426 98.1351 36.7962 98.389 37.2367C98.6429 37.6656 98.77 38.1872 98.77 38.8015C98.77 39.4622 98.6485 40.0246 98.4057 40.4882C98.1739 40.9403 97.8538 41.3056 97.4453 41.5838C97.0366 41.8619 96.573 42.0649 96.0542 42.1925C95.5464 42.32 95.0108 42.3836 94.4479 42.3836H88.3211ZM90.1093 40.5753H94.4479C94.9446 40.5753 95.3808 40.5114 95.7561 40.3839C96.1314 40.2448 96.4241 40.0421 96.6338 39.7755C96.8436 39.4973 96.9483 39.1609 96.9483 38.7668C96.9483 38.3379 96.8215 37.9961 96.5676 37.7411C96.3247 37.4861 96.0046 37.3006 95.6072 37.1847C95.2098 37.0685 94.7957 37.0105 94.3652 37.0105H90.1093V40.5753ZM90.1093 35.185H94.2823C94.6576 35.185 94.9998 35.1211 95.3092 34.9936C95.6183 34.8545 95.8665 34.6631 96.0542 34.4197C96.2418 34.1763 96.3358 33.8981 96.3358 33.5851C96.3358 33.0404 96.126 32.6462 95.7066 32.4028C95.2871 32.1478 94.7459 32.0203 94.0836 32.0203H90.1093V35.185ZM102.742 42.3836V30.2118H111.518V32.0203H104.53V40.5753H111.518V42.3836H102.742ZM103.653 37.0453V35.2371H110.608V37.0453H103.653ZM115.998 42.3836V30.2118H122.108C122.782 30.2118 123.4 30.38 123.963 30.7161C124.526 31.0523 124.978 31.5103 125.321 32.0899C125.663 32.6578 125.834 33.2954 125.834 34.0024C125.834 34.7095 125.652 35.3589 125.287 35.9501C124.934 36.5296 124.459 36.9933 123.863 37.341C123.267 37.6888 122.61 37.8626 121.893 37.8626H117.786V42.3836H115.998ZM124.211 42.3836L120.634 36.889L122.522 36.4541L126.43 42.4011L124.211 42.3836ZM117.786 36.0544H121.843C122.23 36.0544 122.583 35.9617 122.903 35.7762C123.223 35.5907 123.477 35.3414 123.665 35.0284C123.852 34.7154 123.946 34.3734 123.946 34.0024C123.946 33.6199 123.847 33.2838 123.648 32.994C123.449 32.6926 123.173 32.4548 122.82 32.281C122.478 32.1071 122.097 32.0203 121.678 32.0203H117.786V36.0544Z" fill="white"/>
<path d="M7.91509 62.1191C7.03193 62.1191 6.20949 61.9741 5.44775 61.6843C4.68602 61.3829 4.01814 60.954 3.44407 60.3977C2.88106 59.8413 2.43949 59.1803 2.11934 58.4152C1.79919 57.6386 1.63912 56.7865 1.63912 55.8592C1.63912 54.9783 1.80471 54.1609 2.1359 53.4075C2.47812 52.6541 2.93626 51.999 3.5103 51.4426C4.09542 50.8746 4.76881 50.4401 5.53054 50.1384C6.29228 49.8255 7.10368 49.6691 7.96477 49.6691C8.6492 49.6691 9.30606 49.7675 9.9353 49.9646C10.5646 50.1616 11.1331 50.4169 11.6409 50.7299C12.1598 51.0313 12.5793 51.3615 12.8994 51.7208L11.79 53.2164C11.4146 52.8686 11.0227 52.5729 10.6142 52.3295C10.2168 52.0745 9.78628 51.8774 9.32262 51.7383C8.87 51.5992 8.38427 51.5297 7.86542 51.5297C7.29134 51.5297 6.73938 51.634 6.20949 51.8427C5.69061 52.0397 5.22143 52.3295 4.80193 52.712C4.39349 53.0945 4.06782 53.5525 3.82494 54.0857C3.58208 54.6189 3.46063 55.2101 3.46063 55.8592C3.46063 56.5663 3.58208 57.1925 3.82494 57.7373C4.07886 58.2821 4.42109 58.7457 4.85163 59.1283C5.28217 59.4992 5.77343 59.7833 6.32539 59.9804C6.8884 60.1774 7.48455 60.2758 8.11379 60.2758C8.66576 60.2758 9.16808 60.2006 9.6207 60.0499C10.0844 59.8876 10.5039 59.6906 10.8792 59.4585C11.2545 59.215 11.5912 58.96 11.8893 58.6934L12.7669 60.241C12.4799 60.5308 12.0825 60.8206 11.5747 61.1104C11.0779 61.4002 10.5149 61.6436 9.88563 61.8409C9.25639 62.0264 8.59952 62.1191 7.91509 62.1191ZM22.4222 62.1191C21.4728 62.1191 20.6006 61.9625 19.8058 61.6495C19.022 61.325 18.332 60.8786 17.7359 60.3106C17.1508 59.7426 16.6982 59.0819 16.378 58.3285C16.0579 57.5634 15.8978 56.7401 15.8978 55.8592C15.8978 54.9783 16.0579 54.1609 16.378 53.4075C16.6982 52.6425 17.1508 51.9758 17.7359 51.4078C18.332 50.8399 19.022 50.3994 19.8058 50.0864C20.6006 49.7619 21.4728 49.5996 22.4222 49.5996C23.3716 49.5996 24.2382 49.7559 25.022 50.0689C25.8168 50.3822 26.5068 50.8283 27.0919 51.4078C27.688 51.9758 28.1462 52.6425 28.4662 53.4075C28.7974 54.1609 28.9629 54.9783 28.9629 55.8592C28.9629 56.7401 28.7974 57.5634 28.4662 58.3285C28.1462 59.0819 27.688 59.7485 27.0919 60.3281C26.5068 60.8961 25.8168 61.3366 25.022 61.6495C24.2382 61.9625 23.3716 62.1191 22.4222 62.1191ZM22.4222 60.2933C23.1177 60.2933 23.7469 60.1831 24.3099 59.9628C24.884 59.731 25.3807 59.418 25.8002 59.0239C26.2308 58.6182 26.562 58.1486 26.7938 57.6154C27.0256 57.0707 27.1415 56.4851 27.1415 55.8592C27.1415 55.2333 27.0256 54.6537 26.7938 54.1205C26.562 53.5757 26.2308 53.1061 25.8002 52.712C25.3807 52.3063 24.884 51.9934 24.3099 51.7731C23.7469 51.5413 23.1177 51.4254 22.4222 51.4254C21.7377 51.4254 21.1084 51.5413 20.5344 51.7731C19.9604 51.9934 19.4581 52.3004 19.0275 52.6948C18.608 53.0889 18.2824 53.5582 18.0505 54.103C17.8297 54.6362 17.7193 55.2217 17.7193 55.8592C17.7193 56.4851 17.8297 57.0707 18.0505 57.6154C18.2824 58.1602 18.608 58.6298 19.0275 59.0239C19.4581 59.418 19.9604 59.731 20.5344 59.9628C21.1084 60.1831 21.7377 60.2933 22.4222 60.2933ZM32.9423 61.9453V49.7735H34.6977L39.5992 56.7633H38.8871L43.8053 49.7735H45.5274V61.9453H43.7391V56.8504C43.7391 55.8536 43.7612 54.9378 43.8053 54.103C43.8495 53.2568 43.9378 52.4047 44.0702 51.5469L44.2689 52.2252L39.7648 58.45H38.6717L34.2174 52.26L34.3997 51.5469C34.5211 52.3815 34.6038 53.222 34.6479 54.0682C34.7031 54.9028 34.7309 55.8304 34.7309 56.8504V61.9453H32.9423ZM50.3867 61.9453V49.7735H52.1421L57.0436 56.7633H56.3315L61.2497 49.7735H62.9718V61.9453H61.1835V56.8504C61.1835 55.8536 61.2055 54.9378 61.2497 54.103C61.2939 53.2568 61.3822 52.4047 61.5146 51.5469L61.7133 52.2252L57.2092 58.45H56.1164L51.6618 52.26L51.8441 51.5469C51.9655 52.3815 52.0482 53.222 52.0923 54.0682C52.1475 54.9028 52.1753 55.8304 52.1753 56.8504V61.9453H50.3867ZM73.0476 62.0496C71.9766 62.0496 71.0329 61.8118 70.2157 61.3366C69.4099 60.8497 68.7753 60.1947 68.3114 59.3717C67.8588 58.5371 67.6327 57.5923 67.6327 56.5375V49.7559H69.421V56.4331C69.421 57.1518 69.5812 57.8009 69.9013 58.3805C70.2324 58.9484 70.674 59.4005 71.2259 59.737C71.7779 60.0615 72.385 60.2238 73.0476 60.2238C73.7541 60.2238 74.3833 60.0615 74.9352 59.737C75.4982 59.4005 75.9398 58.9484 76.2599 58.3805C76.5911 57.8009 76.7567 57.1518 76.7567 56.4331V49.7559H78.4623V56.5375C78.4623 57.5923 78.2305 58.5371 77.7668 59.3717C77.3142 60.1947 76.6794 60.8497 75.8625 61.3366C75.0567 61.8118 74.1184 62.0496 73.0476 62.0496ZM83.1249 61.9453V49.7735H84.8305L93.4082 59.737L93.2427 59.8933C93.1985 59.5687 93.1543 59.2151 93.1102 58.8325C93.0771 58.45 93.0493 58.0559 93.0273 57.6502C93.0052 57.2445 92.9831 56.8272 92.961 56.3984C92.95 55.9579 92.9389 55.5174 92.9279 55.0769C92.9169 54.6362 92.9115 54.2017 92.9115 53.7728V49.7735H94.6998V61.9453H92.961L84.4994 52.3467L84.582 52.1033C84.6151 52.4858 84.6429 52.8627 84.6649 53.2336C84.6981 53.593 84.7312 53.9407 84.7643 54.2768C84.7974 54.613 84.8195 54.9378 84.8305 55.2508C84.8526 55.5522 84.869 55.842 84.8801 56.1202C84.9021 56.3868 84.9132 56.6418 84.9132 56.8852V61.9453H83.1249ZM99.4844 61.9453V60.1367H102.084V51.5817H99.4844V49.7735H106.489V51.5817H103.872V60.1367H106.489V61.9453H99.4844ZM114.002 61.9453V51.5817H110.028V49.7735H119.881V51.5817H115.791V61.9453H114.002ZM127.461 61.9453V56.2765L127.71 57.4416L122.047 49.7735H124.415L128.588 55.6506L128.19 55.6158L132.181 49.7735H134.334L129.101 57.2157L129.25 56.1374V61.9453H127.461Z" fill="white"/>
</g>
<defs>
<clipPath id="clip0_45_670">
<rect width="135.579" height="96" fill="white"/>
</clipPath>
</defs>
</svg>
