<?xml version="1.0" encoding="utf-8"?>
<!-- Generator: Adobe Illustrator 27.5.0, SVG Export Plug-In . SVG Version: 6.00 Build 0)  -->
<svg version="1.1" id="Layer_1" xmlns="http://www.w3.org/2000/svg" xmlns:xlink="http://www.w3.org/1999/xlink" x="0px" y="0px"
	 viewBox="0 0 468 66.2" style="enable-background:new 0 0 468 66.2;" xml:space="preserve">
<style type="text/css">
	.st0{fill:#FFFFFF;}
</style>
<path class="st0" d="M50.2,28.6c-0.5,0.3-0.9,0.8-1.2,1.4c-4.8,7.3-9.6,14.7-14.4,22c-1,1.5-1,1.5-1.9,0c-4.8-7.3-9.6-14.7-14.4-22
	c-0.3-0.4-0.4-0.9-1.1-1.1v1.5c0,11,0,22,0,33c0,1.4-0.4,1.7-1.7,1.6C10.7,64.9,6,65,1.2,65C0.3,65,0,64.8,0,63.8
	c0-20.5,0-41,0-61.5c0-0.8,0.2-1.1,1.1-1.1c5.5,0,11,0,16.6,0c0.9,0,1.2,0.5,1.6,1.1c4.8,7.8,9.6,15.6,14.4,23.5
	c0.6-0.2,0.8-0.8,1-1.3c4.6-7.4,9.1-14.8,13.7-22.2c0.4-0.8,1.2-1.2,2-1.1c5.3,0.1,10.6,0,15.9,0c0.9,0,1.3,0.2,1.3,1.2
	c0,20.5,0,40.9,0,61.3c0,1.1-0.4,1.2-1.3,1.2c-4.9,0-9.8-0.1-14.7,0c-1.2,0-1.4-0.3-1.4-1.5c0-11.2,0-22.5,0-33.7L50.2,28.6z"/>
<path class="st0" d="M215.1,33c0-10.1,0-20.2,0-30.4c0-1.1,0.2-1.5,1.4-1.4c7.8,0,15.6-0.1,23.4,0c8.6,0.1,16.8,1.7,23.8,7
	c7.3,5.4,11,12.8,11.7,21.8c0.5,7.4-0.8,14.4-5,20.6c-4.9,7.3-12,11.3-20.5,13.2c-3.9,0.8-7.8,1.2-11.8,1.2c-7.2,0-14.4,0-21.6,0
	c-1.3,0-1.5-0.4-1.5-1.6C215.2,53.3,215.1,43.1,215.1,33z M232.7,33c0,5.1,0,10.1,0,15.2c0,0.9,0.2,1.2,1.2,1.2c2.1-0.1,4.2,0,6.4,0
	c4.3,0,8.3-0.9,11.8-3.6c4.4-3.5,5.7-8.2,5.5-13.6c0-6.6-4.3-12.4-10.6-14.2c-4.2-1.4-8.5-0.9-12.8-1.1c-1.1,0-1.5,0.2-1.5,1.4
	C232.7,23.1,232.7,28,232.7,33z"/>
<path class="st0" d="M76.8,35C76.9,16.6,88.4,3.3,105,0.6c10.8-1.8,20.7,0.6,29.1,7.8c6.2,5.2,10.1,12.7,10.9,20.8
	c2.1,16.9-8.9,33-27.1,36.4c-15.9,3-31.8-4.1-38.4-19C77.9,42.9,77,39,76.8,35z M94.8,33.3c-0.1,1.6,0.1,3.3,0.7,4.9
	c1.9,6.3,6,10.6,12.5,11.8s12-0.8,16-6.2c3.1-4.2,3.8-9,3.1-14.1c-1.4-8.9-9.7-15.1-18.6-13.7c-0.5,0.1-0.9,0.2-1.4,0.3
	C99.6,18.2,94.9,24.7,94.8,33.3L94.8,33.3z"/>
<path class="st0" d="M284.8,33.1c0-10.1,0-20.3,0-30.4c0-1.3,0.4-1.5,1.6-1.5c16,0,32,0,48,0c1.3,0,1.6,0.3,1.6,1.6
	c-0.1,3.9-0.1,7.8,0,11.7c0,1.3-0.2,1.8-1.7,1.8c-10.2-0.1-20.4,0-30.5-0.1c-1.2,0-1.6,0.3-1.6,1.6c0.1,2.3,0.1,4.6,0,6.8
	c0,1.2,0.3,1.4,1.4,1.4c9.2-0.1,18.3,0,27.5-0.1c1.4,0,1.8,0.3,1.8,1.7c-0.1,3.6-0.1,7.2,0,10.8c0,1.2-0.3,1.4-1.4,1.4
	c-9.2,0-18.4,0-27.6-0.1c-1.2,0-1.6,0.2-1.6,1.5c0.1,2.4,0.1,4.8,0,7.1c0,1.2,0.3,1.6,1.6,1.6c10.3,0,20.6,0,31-0.1
	c1.3,0,1.8,0.2,1.8,1.7c-0.1,4-0.1,8,0,12c0,1-0.2,1.3-1.3,1.3c-16.4,0-32.8,0-49.2,0c-1.2,0-1.2-0.5-1.2-1.4
	C284.8,53.5,284.8,43.3,284.8,33.1z"/>
<path class="st0" d="M436,50.1c10.3,0,20.3,0,30.3,0c1.3,0,1.8,0.2,1.8,1.7c-0.1,4-0.1,8,0,12c0,0.9-0.2,1.2-1.2,1.2
	c-18,0-36,0-53.9,0c-1,0-1.2-0.3-1.2-1.2c0-3.6,0-7.2,0-10.8c0-0.7,0.3-1.4,0.8-1.9c10-11.2,20-22.5,30-33.7
	c0.3-0.4,0.6-0.7,1.1-1.3h-1.7c-9.3,0-18.5,0-27.8,0c-1,0-1.4-0.2-1.4-1.3c0.1-4.1,0.1-8.2,0-12.3c0-0.9,0.1-1.3,1.2-1.3
	c17.6,0,35.2,0,52.9,0c1.1,0,1.2,0.4,1.2,1.3c0,3.4,0,6.9,0,10.3c0,0.7-0.3,1.5-0.8,2c-10,11.2-20,22.5-30,33.7
	C436.9,49,436.5,49.4,436,50.1z"/>
<path class="st0" d="M173.9,50.1h1.9c9.5,0,19,0,28.6,0c1.1,0,1.6,0.2,1.5,1.4c-0.1,4.1-0.1,8.2,0,12.3c0,0.9-0.3,1.2-1.2,1.2
	c-18,0-36,0-53.9,0c-1,0-1.2-0.3-1.2-1.2c0-3.5,0-7.1,0-10.6c0-0.7,0.3-1.4,0.8-1.9c10.1-11.3,20.1-22.6,30.1-33.9
	c0.3-0.3,0.7-0.6,0.8-1.2h-1.5c-9.2,0-18.3,0-27.5,0c-1.2,0-1.6-0.2-1.6-1.5c0.1-4,0.1-8,0-12c0-1,0.1-1.4,1.3-1.4
	c17.5,0,35,0,52.6,0c1,0,1.3,0.2,1.3,1.2c-0.1,3.5,0,7,0,10.5c0,0.7-0.3,1.5-0.8,2c-10,11.3-20,22.6-30,33.8
	C174.7,49.1,174.4,49.5,173.9,50.1z"/>
<path class="st0" d="M374.6,41.3l6.8-18.8c2.4-6.7,4.8-13.4,7.2-20.1c0.2-0.6,0.2-1.2,1.1-1.2c6.1,0,12.2,0,18.6,0
	c-1.2,3-2.3,5.8-3.5,8.6C397.5,27.9,390.3,46,383,64.1c-0.4,0.9-0.7,1.2-1.7,1.2c-4.6-0.1-9.3,0-14,0c-0.8,0-1.3-0.1-1.6-0.9
	c-8.3-20.8-16.7-41.6-25-62.4c-0.1-0.2-0.2-0.5-0.3-0.8c6.4,0,12.6,0,18.9,0c0.9,0,0.9,0.7,1.1,1.2c2.8,7.6,5.5,15.3,8.2,23
	c1.8,5.1,3.6,10.1,5.5,15.2C374.2,40.9,374.3,41.1,374.6,41.3z"/>
</svg>
