<svg width="1435" height="901" viewBox="0 0 1435 901" fill="none" xmlns="http://www.w3.org/2000/svg">
<mask id="mask0_815_542" style="mask-type:alpha" maskUnits="userSpaceOnUse" x="0" y="0" width="1441" height="901">
<rect x="1" y="1" width="49.2311" height="49.2311" stroke="white" stroke-opacity="0.04" stroke-width="0.984621"/>
<rect x="50.2314" y="1" width="49.2311" height="49.2311" stroke="white" stroke-opacity="0.04" stroke-width="0.984621"/>
<rect x="99.4619" y="1" width="49.2311" height="49.2311" stroke="white" stroke-opacity="0.04" stroke-width="0.984621"/>
<rect x="148.693" y="1" width="49.2311" height="49.2311" stroke="white" stroke-opacity="0.04" stroke-width="0.984621"/>
<rect x="197.924" y="1" width="49.2311" height="49.2311" stroke="white" stroke-opacity="0.04" stroke-width="0.984621"/>
<rect x="247.155" y="1" width="49.2311" height="49.2311" stroke="white" stroke-opacity="0.04" stroke-width="0.984621"/>
<rect x="296.387" y="1" width="49.2311" height="49.2311" stroke="white" stroke-opacity="0.04" stroke-width="0.984621"/>
<rect x="345.617" y="1" width="49.2311" height="49.2311" stroke="white" stroke-opacity="0.04" stroke-width="0.984621"/>
<rect x="394.849" y="1" width="49.2311" height="49.2311" stroke="white" stroke-opacity="0.04" stroke-width="0.984621"/>
<rect x="444.08" y="1" width="49.2311" height="49.2311" stroke="white" stroke-opacity="0.04" stroke-width="0.984621"/>
<rect x="493.311" y="1" width="49.2311" height="49.2311" stroke="white" stroke-opacity="0.04" stroke-width="0.984621"/>
<rect x="542.542" y="1" width="49.2311" height="49.2311" stroke="white" stroke-opacity="0.04" stroke-width="0.984621"/>
<rect x="591.772" y="1" width="49.2311" height="49.2311" stroke="white" stroke-opacity="0.04" stroke-width="0.984621"/>
<rect x="641.004" y="1" width="49.2311" height="49.2311" stroke="white" stroke-opacity="0.04" stroke-width="0.984621"/>
<rect x="690.235" y="1" width="49.2311" height="49.2311" stroke="white" stroke-opacity="0.04" stroke-width="0.984621"/>
<rect x="739.466" y="1" width="49.2311" height="49.2311" stroke="white" stroke-opacity="0.04" stroke-width="0.984621"/>
<rect x="788.697" y="1" width="49.2311" height="49.2311" stroke="white" stroke-opacity="0.04" stroke-width="0.984621"/>
<rect x="837.929" y="1" width="49.2311" height="49.2311" stroke="white" stroke-opacity="0.04" stroke-width="0.984621"/>
<rect x="887.16" y="1" width="49.2311" height="49.2311" stroke="white" stroke-opacity="0.04" stroke-width="0.984621"/>
<rect x="936.391" y="1" width="49.2311" height="49.2311" stroke="white" stroke-opacity="0.04" stroke-width="0.984621"/>
<rect x="985.621" y="1" width="49.2311" height="49.2311" stroke="white" stroke-opacity="0.04" stroke-width="0.984621"/>
<rect x="1" y="70.2397" width="49.2311" height="49.2311" stroke="white" stroke-opacity="0.04" stroke-width="0.984621"/>
<rect x="50.2314" y="70.2397" width="49.2311" height="49.2311" stroke="white" stroke-opacity="0.04" stroke-width="0.984621"/>
<rect x="99.4619" y="70.2397" width="49.2311" height="49.2311" fill="white" fill-opacity="0.04" stroke="white" stroke-opacity="0.04" stroke-width="0.984621"/>
<rect x="148.693" y="70.2397" width="49.2311" height="49.2311" stroke="white" stroke-opacity="0.04" stroke-width="0.984621"/>
<rect x="197.924" y="70.2397" width="49.2311" height="49.2311" stroke="white" stroke-opacity="0.04" stroke-width="0.984621"/>
<rect x="247.155" y="70.2397" width="49.2311" height="49.2311" stroke="white" stroke-opacity="0.04" stroke-width="0.984621"/>
<rect x="296.387" y="70.2397" width="49.2311" height="49.2311" stroke="white" stroke-opacity="0.04" stroke-width="0.984621"/>
<rect x="345.617" y="70.2397" width="49.2311" height="49.2311" stroke="white" stroke-opacity="0.04" stroke-width="0.984621"/>
<rect x="394.849" y="70.2397" width="49.2311" height="49.2311" stroke="white" stroke-opacity="0.04" stroke-width="0.984621"/>
<rect x="444.08" y="70.2397" width="49.2311" height="49.2311" fill="white" fill-opacity="0.04" stroke="white" stroke-opacity="0.04" stroke-width="0.984621"/>
<rect x="493.311" y="70.2397" width="49.2311" height="49.2311" stroke="white" stroke-opacity="0.04" stroke-width="0.984621"/>
<rect x="542.542" y="70.2397" width="49.2311" height="49.2311" stroke="white" stroke-opacity="0.04" stroke-width="0.984621"/>
<rect x="591.772" y="70.2397" width="49.2311" height="49.2311" stroke="white" stroke-opacity="0.04" stroke-width="0.984621"/>
<rect x="641.004" y="70.2397" width="49.2311" height="49.2311" stroke="white" stroke-opacity="0.04" stroke-width="0.984621"/>
<rect x="690.235" y="70.2397" width="49.2311" height="49.2311" stroke="white" stroke-opacity="0.04" stroke-width="0.984621"/>
<rect x="739.466" y="70.2397" width="49.2311" height="49.2311" stroke="white" stroke-opacity="0.04" stroke-width="0.984621"/>
<rect x="788.697" y="70.2397" width="49.2311" height="49.2311" stroke="white" stroke-opacity="0.04" stroke-width="0.984621"/>
<rect x="837.929" y="70.2397" width="49.2311" height="49.2311" stroke="white" stroke-opacity="0.04" stroke-width="0.984621"/>
<rect x="887.16" y="70.2397" width="49.2311" height="49.2311" stroke="white" stroke-opacity="0.04" stroke-width="0.984621"/>
<rect x="936.391" y="70.2397" width="49.2311" height="49.2311" stroke="white" stroke-opacity="0.04" stroke-width="0.984621"/>
<rect x="985.621" y="70.2397" width="49.2311" height="49.2311" stroke="white" stroke-opacity="0.04" stroke-width="0.984621"/>
<rect x="1" y="139.458" width="49.2311" height="49.2311" stroke="white" stroke-opacity="0.04" stroke-width="0.984621"/>
<rect x="50.2314" y="139.458" width="49.2311" height="49.2311" stroke="white" stroke-opacity="0.04" stroke-width="0.984621"/>
<rect x="99.4619" y="139.458" width="49.2311" height="49.2311" stroke="white" stroke-opacity="0.04" stroke-width="0.984621"/>
<rect x="148.693" y="139.458" width="49.2311" height="49.2311" stroke="white" stroke-opacity="0.04" stroke-width="0.984621"/>
<rect x="197.924" y="139.458" width="49.2311" height="49.2311" stroke="white" stroke-opacity="0.04" stroke-width="0.984621"/>
<rect x="247.155" y="139.458" width="49.2311" height="49.2311" stroke="white" stroke-opacity="0.04" stroke-width="0.984621"/>
<rect x="296.387" y="139.458" width="49.2311" height="49.2311" stroke="white" stroke-opacity="0.04" stroke-width="0.984621"/>
<rect x="345.617" y="139.458" width="49.2311" height="49.2311" stroke="white" stroke-opacity="0.04" stroke-width="0.984621"/>
<rect x="394.849" y="139.458" width="49.2311" height="49.2311" stroke="white" stroke-opacity="0.04" stroke-width="0.984621"/>
<rect x="444.08" y="139.458" width="49.2311" height="49.2311" stroke="white" stroke-opacity="0.04" stroke-width="0.984621"/>
<rect x="493.311" y="139.458" width="49.2311" height="49.2311" stroke="white" stroke-opacity="0.04" stroke-width="0.984621"/>
<rect x="542.542" y="139.458" width="49.2311" height="49.2311" stroke="white" stroke-opacity="0.04" stroke-width="0.984621"/>
<rect x="591.772" y="139.458" width="49.2311" height="49.2311" stroke="white" stroke-opacity="0.04" stroke-width="0.984621"/>
<rect x="641.004" y="139.458" width="49.2311" height="49.2311" stroke="white" stroke-opacity="0.04" stroke-width="0.984621"/>
<rect x="690.235" y="139.458" width="49.2311" height="49.2311" stroke="white" stroke-opacity="0.04" stroke-width="0.984621"/>
<rect x="739.466" y="139.458" width="49.2311" height="49.2311" stroke="white" stroke-opacity="0.04" stroke-width="0.984621"/>
<rect x="788.697" y="139.458" width="49.2311" height="49.2311" fill="white" fill-opacity="0.04" stroke="white" stroke-opacity="0.04" stroke-width="0.984621"/>
<rect x="837.928" y="139.458" width="49.2311" height="49.2311" stroke="white" stroke-opacity="0.04" stroke-width="0.984621"/>
<rect x="887.16" y="139.458" width="49.2311" height="49.2311" stroke="white" stroke-opacity="0.04" stroke-width="0.984621"/>
<rect x="936.391" y="139.458" width="49.2311" height="49.2311" stroke="white" stroke-opacity="0.04" stroke-width="0.984621"/>
<rect x="985.621" y="139.458" width="49.2311" height="49.2311" stroke="white" stroke-opacity="0.04" stroke-width="0.984621"/>
<rect x="1" y="208.698" width="49.2311" height="49.2311" stroke="white" stroke-opacity="0.04" stroke-width="0.984621"/>
<rect x="50.2314" y="208.698" width="49.2311" height="49.2311" stroke="white" stroke-opacity="0.04" stroke-width="0.984621"/>
<rect x="99.4619" y="208.698" width="49.2311" height="49.2311" stroke="white" stroke-opacity="0.04" stroke-width="0.984621"/>
<rect x="148.693" y="208.698" width="49.2311" height="49.2311" stroke="white" stroke-opacity="0.04" stroke-width="0.984621"/>
<rect x="197.924" y="208.698" width="49.2311" height="49.2311" stroke="white" stroke-opacity="0.04" stroke-width="0.984621"/>
<rect x="247.155" y="208.698" width="49.2311" height="49.2311" stroke="white" stroke-opacity="0.04" stroke-width="0.984621"/>
<rect x="296.387" y="208.698" width="49.2311" height="49.2311" stroke="white" stroke-opacity="0.04" stroke-width="0.984621"/>
<rect x="345.617" y="208.698" width="49.2311" height="49.2311" stroke="white" stroke-opacity="0.04" stroke-width="0.984621"/>
<rect x="394.849" y="208.698" width="49.2311" height="49.2311" stroke="white" stroke-opacity="0.04" stroke-width="0.984621"/>
<rect x="444.08" y="208.698" width="49.2311" height="49.2311" stroke="white" stroke-opacity="0.04" stroke-width="0.984621"/>
<rect x="493.311" y="208.698" width="49.2311" height="49.2311" stroke="white" stroke-opacity="0.04" stroke-width="0.984621"/>
<rect x="542.542" y="208.698" width="49.2311" height="49.2311" stroke="white" stroke-opacity="0.04" stroke-width="0.984621"/>
<rect x="591.772" y="208.698" width="49.2311" height="49.2311" stroke="white" stroke-opacity="0.04" stroke-width="0.984621"/>
<rect x="641.004" y="208.698" width="49.2311" height="49.2311" stroke="white" stroke-opacity="0.04" stroke-width="0.984621"/>
<rect x="690.235" y="208.698" width="49.2311" height="49.2311" stroke="white" stroke-opacity="0.04" stroke-width="0.984621"/>
<rect x="739.466" y="208.698" width="49.2311" height="49.2311" stroke="white" stroke-opacity="0.04" stroke-width="0.984621"/>
<rect x="788.697" y="208.698" width="49.2311" height="49.2311" stroke="white" stroke-opacity="0.04" stroke-width="0.984621"/>
<rect x="837.928" y="208.698" width="49.2311" height="49.2311" stroke="white" stroke-opacity="0.04" stroke-width="0.984621"/>
<rect x="887.16" y="208.698" width="49.2311" height="49.2311" stroke="white" stroke-opacity="0.04" stroke-width="0.984621"/>
<rect x="936.391" y="208.698" width="49.2311" height="49.2311" stroke="white" stroke-opacity="0.04" stroke-width="0.984621"/>
<rect x="985.621" y="208.698" width="49.2311" height="49.2311" stroke="white" stroke-opacity="0.04" stroke-width="0.984621"/>
<rect x="1" y="277.916" width="49.2311" height="49.2311" stroke="white" stroke-opacity="0.1" stroke-width="0.984621"/>
<rect x="50.2314" y="277.916" width="49.2311" height="49.2311" stroke="white" stroke-opacity="0.1" stroke-width="0.984621"/>
<rect x="99.4619" y="277.916" width="49.2311" height="49.2311" stroke="white" stroke-opacity="0.1" stroke-width="0.984621"/>
<rect x="148.693" y="277.916" width="49.2311" height="49.2311" fill="white" fill-opacity="0.1" stroke="white" stroke-opacity="0.1" stroke-width="0.984621"/>
<rect x="197.924" y="277.916" width="49.2311" height="49.2311" stroke="white" stroke-opacity="0.1" stroke-width="0.984621"/>
<rect x="247.155" y="277.916" width="49.2311" height="49.2311" stroke="white" stroke-opacity="0.1" stroke-width="0.984621"/>
<rect x="296.387" y="277.916" width="49.2311" height="49.2311" stroke="white" stroke-opacity="0.1" stroke-width="0.984621"/>
<rect x="345.617" y="277.916" width="49.2311" height="49.2311" stroke="white" stroke-opacity="0.1" stroke-width="0.984621"/>
<rect x="394.849" y="277.916" width="49.2311" height="49.2311" stroke="white" stroke-opacity="0.1" stroke-width="0.984621"/>
<rect x="444.08" y="277.916" width="49.2311" height="49.2311" stroke="white" stroke-opacity="0.1" stroke-width="0.984621"/>
<rect x="493.311" y="277.916" width="49.2311" height="49.2311" stroke="white" stroke-opacity="0.1" stroke-width="0.984621"/>
<rect x="542.542" y="277.916" width="49.2311" height="49.2311" stroke="white" stroke-opacity="0.1" stroke-width="0.984621"/>
<rect x="591.772" y="277.916" width="49.2311" height="49.2311" fill="white" fill-opacity="0.1" stroke="white" stroke-opacity="0.1" stroke-width="0.984621"/>
<rect x="641.004" y="277.916" width="49.2311" height="49.2311" stroke="white" stroke-opacity="0.1" stroke-width="0.984621"/>
<rect x="690.235" y="277.916" width="49.2311" height="49.2311" stroke="white" stroke-opacity="0.1" stroke-width="0.984621"/>
<rect x="739.466" y="277.916" width="49.2311" height="49.2311" stroke="white" stroke-opacity="0.1" stroke-width="0.984621"/>
<rect x="788.697" y="277.916" width="49.2311" height="49.2311" stroke="white" stroke-opacity="0.1" stroke-width="0.984621"/>
<rect x="837.928" y="277.916" width="49.2311" height="49.2311" stroke="white" stroke-opacity="0.1" stroke-width="0.984621"/>
<rect x="887.16" y="277.916" width="49.2311" height="49.2311" stroke="white" stroke-opacity="0.1" stroke-width="0.984621"/>
<rect x="936.391" y="277.916" width="49.2311" height="49.2311" stroke="white" stroke-opacity="0.1" stroke-width="0.984621"/>
<rect x="985.621" y="277.916" width="49.2311" height="49.2311" stroke="white" stroke-opacity="0.1" stroke-width="0.984621"/>
<rect x="1" y="347.156" width="49.2311" height="49.2311" stroke="white" stroke-opacity="0.1" stroke-width="0.984621"/>
<rect x="50.2314" y="347.156" width="49.2311" height="49.2311" stroke="white" stroke-opacity="0.1" stroke-width="0.984621"/>
<rect x="99.4619" y="347.156" width="49.2311" height="49.2311" stroke="white" stroke-opacity="0.1" stroke-width="0.984621"/>
<rect x="148.693" y="347.156" width="49.2311" height="49.2311" stroke="white" stroke-opacity="0.1" stroke-width="0.984621"/>
<rect x="197.924" y="347.156" width="49.2311" height="49.2311" stroke="white" stroke-opacity="0.1" stroke-width="0.984621"/>
<rect x="247.155" y="347.156" width="49.2311" height="49.2311" stroke="white" stroke-opacity="0.1" stroke-width="0.984621"/>
<rect x="296.387" y="347.156" width="49.2311" height="49.2311" stroke="white" stroke-opacity="0.1" stroke-width="0.984621"/>
<rect x="345.617" y="347.156" width="49.2311" height="49.2311" stroke="white" stroke-opacity="0.1" stroke-width="0.984621"/>
<rect x="394.849" y="347.156" width="49.2311" height="49.2311" stroke="white" stroke-opacity="0.1" stroke-width="0.984621"/>
<rect x="444.08" y="347.156" width="49.2311" height="49.2311" stroke="white" stroke-opacity="0.1" stroke-width="0.984621"/>
<rect x="493.311" y="347.156" width="49.2311" height="49.2311" stroke="white" stroke-opacity="0.1" stroke-width="0.984621"/>
<rect x="542.542" y="347.156" width="49.2311" height="49.2311" stroke="white" stroke-opacity="0.1" stroke-width="0.984621"/>
<rect x="591.772" y="347.156" width="49.2311" height="49.2311" stroke="white" stroke-opacity="0.1" stroke-width="0.984621"/>
<rect x="641.004" y="347.156" width="49.2311" height="49.2311" stroke="white" stroke-opacity="0.1" stroke-width="0.984621"/>
<rect x="690.235" y="347.156" width="49.2311" height="49.2311" stroke="white" stroke-opacity="0.1" stroke-width="0.984621"/>
<rect x="739.466" y="347.156" width="49.2311" height="49.2311" stroke="white" stroke-opacity="0.1" stroke-width="0.984621"/>
<rect x="788.697" y="347.156" width="49.2311" height="49.2311" stroke="white" stroke-opacity="0.1" stroke-width="0.984621"/>
<rect x="837.928" y="347.156" width="49.2311" height="49.2311" stroke="white" stroke-opacity="0.1" stroke-width="0.984621"/>
<rect x="887.16" y="347.156" width="49.2311" height="49.2311" fill="white" fill-opacity="0.1" stroke="white" stroke-opacity="0.1" stroke-width="0.984621"/>
<rect x="936.391" y="347.156" width="49.2311" height="49.2311" stroke="white" stroke-opacity="0.1" stroke-width="0.984621"/>
<rect x="985.621" y="347.156" width="49.2311" height="49.2311" stroke="white" stroke-opacity="0.1" stroke-width="0.984621"/>
<rect x="1" y="416.396" width="49.2311" height="49.2311" stroke="white" stroke-opacity="0.1" stroke-width="0.984621"/>
<rect x="50.2314" y="416.396" width="49.2311" height="49.2311" stroke="white" stroke-opacity="0.1" stroke-width="0.984621"/>
<rect x="99.4619" y="416.396" width="49.2311" height="49.2311" stroke="white" stroke-opacity="0.1" stroke-width="0.984621"/>
<rect x="148.693" y="416.396" width="49.2311" height="49.2311" stroke="white" stroke-opacity="0.1" stroke-width="0.984621"/>
<rect x="197.924" y="416.396" width="49.2311" height="49.2311" stroke="white" stroke-opacity="0.1" stroke-width="0.984621"/>
<rect x="247.155" y="416.396" width="49.2311" height="49.2311" stroke="white" stroke-opacity="0.1" stroke-width="0.984621"/>
<rect x="296.387" y="416.396" width="49.2311" height="49.2311" fill="white" fill-opacity="0.1" stroke="white" stroke-opacity="0.1" stroke-width="0.984621"/>
<rect x="345.617" y="416.396" width="49.2311" height="49.2311" stroke="white" stroke-opacity="0.1" stroke-width="0.984621"/>
<rect x="394.849" y="416.396" width="49.2311" height="49.2311" stroke="white" stroke-opacity="0.1" stroke-width="0.984621"/>
<rect x="444.08" y="416.396" width="49.2311" height="49.2311" stroke="white" stroke-opacity="0.1" stroke-width="0.984621"/>
<rect x="493.311" y="416.396" width="49.2311" height="49.2311" stroke="white" stroke-opacity="0.1" stroke-width="0.984621"/>
<rect x="542.542" y="416.396" width="49.2311" height="49.2311" stroke="white" stroke-opacity="0.1" stroke-width="0.984621"/>
<rect x="591.772" y="416.396" width="49.2311" height="49.2311" stroke="white" stroke-opacity="0.1" stroke-width="0.984621"/>
<rect x="641.004" y="416.396" width="49.2311" height="49.2311" stroke="white" stroke-opacity="0.1" stroke-width="0.984621"/>
<rect x="690.235" y="416.396" width="49.2311" height="49.2311" stroke="white" stroke-opacity="0.1" stroke-width="0.984621"/>
<rect x="739.466" y="416.396" width="49.2311" height="49.2311" stroke="white" stroke-opacity="0.1" stroke-width="0.984621"/>
<rect x="788.697" y="416.396" width="49.2311" height="49.2311" fill="white" fill-opacity="0.1" stroke="white" stroke-opacity="0.1" stroke-width="0.984621"/>
<rect x="837.928" y="416.396" width="49.2311" height="49.2311" stroke="white" stroke-opacity="0.1" stroke-width="0.984621"/>
<rect x="887.16" y="416.396" width="49.2311" height="49.2311" stroke="white" stroke-opacity="0.1" stroke-width="0.984621"/>
<rect x="936.391" y="416.396" width="49.2311" height="49.2311" stroke="white" stroke-opacity="0.1" stroke-width="0.984621"/>
<rect x="985.621" y="416.396" width="49.2311" height="49.2311" stroke="white" stroke-opacity="0.1" stroke-width="0.984621"/>
<rect x="1" y="485.613" width="49.2311" height="49.2311" stroke="white" stroke-opacity="0.1" stroke-width="0.984621"/>
<rect x="50.2314" y="485.613" width="49.2311" height="49.2311" stroke="white" stroke-opacity="0.1" stroke-width="0.984621"/>
<rect x="99.4619" y="485.613" width="49.2311" height="49.2311" stroke="white" stroke-opacity="0.1" stroke-width="0.984621"/>
<rect x="148.693" y="485.613" width="49.2311" height="49.2311" stroke="white" stroke-opacity="0.1" stroke-width="0.984621"/>
<rect x="197.924" y="485.613" width="49.2311" height="49.2311" stroke="white" stroke-opacity="0.1" stroke-width="0.984621"/>
<rect x="247.155" y="485.613" width="49.2311" height="49.2311" stroke="white" stroke-opacity="0.1" stroke-width="0.984621"/>
<rect x="296.387" y="485.613" width="49.2311" height="49.2311" stroke="white" stroke-opacity="0.1" stroke-width="0.984621"/>
<rect x="345.617" y="485.613" width="49.2311" height="49.2311" stroke="white" stroke-opacity="0.1" stroke-width="0.984621"/>
<rect x="394.849" y="485.613" width="49.2311" height="49.2311" fill="white" fill-opacity="0.1" stroke="white" stroke-opacity="0.1" stroke-width="0.984621"/>
<rect x="444.08" y="485.613" width="49.2311" height="49.2311" stroke="white" stroke-opacity="0.1" stroke-width="0.984621"/>
<rect x="493.311" y="485.613" width="49.2311" height="49.2311" stroke="white" stroke-opacity="0.1" stroke-width="0.984621"/>
<rect x="542.542" y="485.613" width="49.2311" height="49.2311" stroke="white" stroke-opacity="0.1" stroke-width="0.984621"/>
<rect x="591.772" y="485.613" width="49.2311" height="49.2311" stroke="white" stroke-opacity="0.1" stroke-width="0.984621"/>
<rect x="641.004" y="485.613" width="49.2311" height="49.2311" stroke="white" stroke-opacity="0.1" stroke-width="0.984621"/>
<rect x="690.235" y="485.613" width="49.2311" height="49.2311" stroke="white" stroke-opacity="0.1" stroke-width="0.984621"/>
<rect x="739.466" y="485.613" width="49.2311" height="49.2311" stroke="white" stroke-opacity="0.1" stroke-width="0.984621"/>
<rect x="788.697" y="485.613" width="49.2311" height="49.2311" stroke="white" stroke-opacity="0.1" stroke-width="0.984621"/>
<rect x="837.928" y="485.613" width="49.2311" height="49.2311" stroke="white" stroke-opacity="0.1" stroke-width="0.984621"/>
<rect x="887.16" y="485.613" width="49.2311" height="49.2311" stroke="white" stroke-opacity="0.1" stroke-width="0.984621"/>
<rect x="936.391" y="485.613" width="49.2311" height="49.2311" stroke="white" stroke-opacity="0.1" stroke-width="0.984621"/>
<rect x="985.621" y="485.613" width="49.2311" height="49.2311" stroke="white" stroke-opacity="0.1" stroke-width="0.984621"/>
<rect x="1" y="554.854" width="49.2311" height="49.2311" stroke="white" stroke-opacity="0.1" stroke-width="0.984621"/>
<rect x="50.2314" y="554.854" width="49.2311" height="49.2311" stroke="white" stroke-opacity="0.1" stroke-width="0.984621"/>
<rect x="99.4619" y="554.854" width="49.2311" height="49.2311" stroke="white" stroke-opacity="0.1" stroke-width="0.984621"/>
<rect x="148.693" y="554.854" width="49.2311" height="49.2311" stroke="white" stroke-opacity="0.1" stroke-width="0.984621"/>
<rect x="197.924" y="554.854" width="49.2311" height="49.2311" fill="white" fill-opacity="0.1" stroke="white" stroke-opacity="0.1" stroke-width="0.984621"/>
<rect x="247.155" y="554.854" width="49.2311" height="49.2311" stroke="white" stroke-opacity="0.1" stroke-width="0.984621"/>
<rect x="296.387" y="554.854" width="49.2311" height="49.2311" stroke="white" stroke-opacity="0.1" stroke-width="0.984621"/>
<rect x="345.617" y="554.854" width="49.2311" height="49.2311" stroke="white" stroke-opacity="0.1" stroke-width="0.984621"/>
<rect x="394.849" y="554.854" width="49.2311" height="49.2311" stroke="white" stroke-opacity="0.1" stroke-width="0.984621"/>
<rect x="444.08" y="554.854" width="49.2311" height="49.2311" stroke="white" stroke-opacity="0.1" stroke-width="0.984621"/>
<rect x="493.311" y="554.854" width="49.2311" height="49.2311" stroke="white" stroke-opacity="0.1" stroke-width="0.984621"/>
<rect x="542.542" y="554.854" width="49.2311" height="49.2311" stroke="white" stroke-opacity="0.1" stroke-width="0.984621"/>
<rect x="591.772" y="554.854" width="49.2311" height="49.2311" stroke="white" stroke-opacity="0.1" stroke-width="0.984621"/>
<rect x="641.004" y="554.854" width="49.2311" height="49.2311" stroke="white" stroke-opacity="0.1" stroke-width="0.984621"/>
<rect x="690.235" y="554.854" width="49.2311" height="49.2311" stroke="white" stroke-opacity="0.1" stroke-width="0.984621"/>
<rect x="739.466" y="554.854" width="49.2311" height="49.2311" stroke="white" stroke-opacity="0.1" stroke-width="0.984621"/>
<rect x="788.697" y="554.854" width="49.2311" height="49.2311" stroke="white" stroke-opacity="0.1" stroke-width="0.984621"/>
<rect x="837.928" y="554.854" width="49.2311" height="49.2311" stroke="white" stroke-opacity="0.1" stroke-width="0.984621"/>
<rect x="887.16" y="554.854" width="49.2311" height="49.2311" stroke="white" stroke-opacity="0.1" stroke-width="0.984621"/>
<rect x="936.391" y="554.854" width="49.2311" height="49.2311" stroke="white" stroke-opacity="0.1" stroke-width="0.984621"/>
<rect x="985.621" y="554.854" width="49.2311" height="49.2311" stroke="white" stroke-opacity="0.1" stroke-width="0.984621"/>
<rect x="1" y="624.093" width="49.2311" height="49.2311" stroke="white" stroke-opacity="0.1" stroke-width="0.984621"/>
<rect x="50.2314" y="624.093" width="49.2311" height="49.2311" stroke="white" stroke-opacity="0.1" stroke-width="0.984621"/>
<rect x="99.4619" y="624.093" width="49.2311" height="49.2311" stroke="white" stroke-opacity="0.1" stroke-width="0.984621"/>
<rect x="148.693" y="624.093" width="49.2311" height="49.2311" stroke="white" stroke-opacity="0.1" stroke-width="0.984621"/>
<rect x="197.924" y="624.093" width="49.2311" height="49.2311" stroke="white" stroke-opacity="0.1" stroke-width="0.984621"/>
<rect x="247.155" y="624.093" width="49.2311" height="49.2311" stroke="white" stroke-opacity="0.1" stroke-width="0.984621"/>
<rect x="296.387" y="624.093" width="49.2311" height="49.2311" stroke="white" stroke-opacity="0.1" stroke-width="0.984621"/>
<rect x="345.617" y="624.093" width="49.2311" height="49.2311" stroke="white" stroke-opacity="0.1" stroke-width="0.984621"/>
<rect x="394.849" y="624.093" width="49.2311" height="49.2311" stroke="white" stroke-opacity="0.1" stroke-width="0.984621"/>
<rect x="444.08" y="624.093" width="49.2311" height="49.2311" stroke="white" stroke-opacity="0.1" stroke-width="0.984621"/>
<rect x="493.311" y="624.093" width="49.2311" height="49.2311" stroke="white" stroke-opacity="0.1" stroke-width="0.984621"/>
<rect x="542.542" y="624.093" width="49.2311" height="49.2311" stroke="white" stroke-opacity="0.1" stroke-width="0.984621"/>
<rect x="591.772" y="624.093" width="49.2311" height="49.2311" stroke="white" stroke-opacity="0.1" stroke-width="0.984621"/>
<rect x="641.004" y="624.093" width="49.2311" height="49.2311" fill="white" fill-opacity="0.1" stroke="white" stroke-opacity="0.1" stroke-width="0.984621"/>
<rect x="690.235" y="624.093" width="49.2311" height="49.2311" stroke="white" stroke-opacity="0.1" stroke-width="0.984621"/>
<rect x="739.466" y="624.093" width="49.2311" height="49.2311" stroke="white" stroke-opacity="0.1" stroke-width="0.984621"/>
<rect x="788.697" y="624.093" width="49.2311" height="49.2311" stroke="white" stroke-opacity="0.1" stroke-width="0.984621"/>
<rect x="837.928" y="624.093" width="49.2311" height="49.2311" stroke="white" stroke-opacity="0.1" stroke-width="0.984621"/>
<rect x="887.16" y="624.093" width="49.2311" height="49.2311" stroke="white" stroke-opacity="0.1" stroke-width="0.984621"/>
<rect x="936.391" y="624.093" width="49.2311" height="49.2311" stroke="white" stroke-opacity="0.1" stroke-width="0.984621"/>
<rect x="985.621" y="624.093" width="49.2311" height="49.2311" stroke="white" stroke-opacity="0.1" stroke-width="0.984621"/>
<rect x="1" y="693.308" width="49.2311" height="49.2311" stroke="white" stroke-opacity="0.04" stroke-width="0.984621"/>
<rect x="50.2314" y="693.308" width="49.2311" height="49.2311" stroke="white" stroke-opacity="0.04" stroke-width="0.984621"/>
<rect x="99.4619" y="693.308" width="49.2311" height="49.2311" stroke="white" stroke-opacity="0.04" stroke-width="0.984621"/>
<rect x="148.693" y="693.308" width="49.2311" height="49.2311" stroke="white" stroke-opacity="0.04" stroke-width="0.984621"/>
<rect x="197.924" y="693.308" width="49.2311" height="49.2311" stroke="white" stroke-opacity="0.04" stroke-width="0.984621"/>
<rect x="247.155" y="693.308" width="49.2311" height="49.2311" stroke="white" stroke-opacity="0.04" stroke-width="0.984621"/>
<rect x="296.387" y="693.308" width="49.2311" height="49.2311" stroke="white" stroke-opacity="0.04" stroke-width="0.984621"/>
<rect x="345.617" y="693.308" width="49.2311" height="49.2311" stroke="white" stroke-opacity="0.04" stroke-width="0.984621"/>
<rect x="394.849" y="693.308" width="49.2311" height="49.2311" stroke="white" stroke-opacity="0.04" stroke-width="0.984621"/>
<rect x="444.08" y="693.308" width="49.2311" height="49.2311" stroke="white" stroke-opacity="0.04" stroke-width="0.984621"/>
<rect x="493.311" y="693.308" width="49.2311" height="49.2311" stroke="white" stroke-opacity="0.04" stroke-width="0.984621"/>
<rect x="542.542" y="693.308" width="49.2311" height="49.2311" stroke="white" stroke-opacity="0.04" stroke-width="0.984621"/>
<rect x="591.772" y="693.308" width="49.2311" height="49.2311" stroke="white" stroke-opacity="0.04" stroke-width="0.984621"/>
<rect x="641.004" y="693.308" width="49.2311" height="49.2311" stroke="white" stroke-opacity="0.04" stroke-width="0.984621"/>
<rect x="690.235" y="693.308" width="49.2311" height="49.2311" stroke="white" stroke-opacity="0.04" stroke-width="0.984621"/>
<rect x="739.466" y="693.308" width="49.2311" height="49.2311" stroke="white" stroke-opacity="0.04" stroke-width="0.984621"/>
<rect x="788.697" y="693.308" width="49.2311" height="49.2311" stroke="white" stroke-opacity="0.04" stroke-width="0.984621"/>
<rect x="837.928" y="693.308" width="49.2311" height="49.2311" stroke="white" stroke-opacity="0.04" stroke-width="0.984621"/>
<rect x="887.16" y="693.308" width="49.2311" height="49.2311" stroke="white" stroke-opacity="0.04" stroke-width="0.984621"/>
<rect x="936.391" y="693.308" width="49.2311" height="49.2311" stroke="white" stroke-opacity="0.04" stroke-width="0.984621"/>
<rect x="985.621" y="693.308" width="49.2311" height="49.2311" stroke="white" stroke-opacity="0.04" stroke-width="0.984621"/>
<rect x="1" y="762.547" width="49.2311" height="49.2311" stroke="white" stroke-opacity="0.1" stroke-width="0.984621"/>
<rect x="50.2314" y="762.547" width="49.2311" height="49.2311" stroke="white" stroke-opacity="0.1" stroke-width="0.984621"/>
<rect x="99.4619" y="762.547" width="49.2311" height="49.2311" stroke="white" stroke-opacity="0.1" stroke-width="0.984621"/>
<rect x="148.693" y="762.547" width="49.2311" height="49.2311" stroke="white" stroke-opacity="0.1" stroke-width="0.984621"/>
<rect x="197.924" y="762.547" width="49.2311" height="49.2311" stroke="white" stroke-opacity="0.1" stroke-width="0.984621"/>
<rect x="247.155" y="762.547" width="49.2311" height="49.2311" stroke="white" stroke-opacity="0.1" stroke-width="0.984621"/>
<rect x="296.387" y="762.547" width="49.2311" height="49.2311" stroke="white" stroke-opacity="0.1" stroke-width="0.984621"/>
<rect x="345.617" y="762.547" width="49.2311" height="49.2311" stroke="white" stroke-opacity="0.1" stroke-width="0.984621"/>
<rect x="394.849" y="762.547" width="49.2311" height="49.2311" stroke="white" stroke-opacity="0.1" stroke-width="0.984621"/>
<rect x="444.08" y="762.547" width="49.2311" height="49.2311" stroke="white" stroke-opacity="0.1" stroke-width="0.984621"/>
<rect x="493.311" y="762.547" width="49.2311" height="49.2311" stroke="white" stroke-opacity="0.1" stroke-width="0.984621"/>
<rect x="542.542" y="762.547" width="49.2311" height="49.2311" stroke="white" stroke-opacity="0.1" stroke-width="0.984621"/>
<rect x="591.772" y="762.547" width="49.2311" height="49.2311" stroke="white" stroke-opacity="0.1" stroke-width="0.984621"/>
<rect x="641.004" y="762.547" width="49.2311" height="49.2311" stroke="white" stroke-opacity="0.1" stroke-width="0.984621"/>
<rect x="690.235" y="762.547" width="49.2311" height="49.2311" stroke="white" stroke-opacity="0.1" stroke-width="0.984621"/>
<rect x="739.466" y="762.547" width="49.2311" height="49.2311" stroke="white" stroke-opacity="0.1" stroke-width="0.984621"/>
<rect x="788.697" y="762.547" width="49.2311" height="49.2311" stroke="white" stroke-opacity="0.1" stroke-width="0.984621"/>
<rect x="837.928" y="762.547" width="49.2311" height="49.2311" fill="white" fill-opacity="0.1" stroke="white" stroke-opacity="0.1" stroke-width="0.984621"/>
<rect x="887.16" y="762.547" width="49.2311" height="49.2311" stroke="white" stroke-opacity="0.1" stroke-width="0.984621"/>
<rect x="936.391" y="762.547" width="49.2311" height="49.2311" stroke="white" stroke-opacity="0.1" stroke-width="0.984621"/>
<rect x="985.621" y="762.547" width="49.2311" height="49.2311" stroke="white" stroke-opacity="0.1" stroke-width="0.984621"/>
<rect x="1" y="831.769" width="49.2311" height="49.2311" stroke="white" stroke-opacity="0.04" stroke-width="0.984621"/>
<rect x="50.2314" y="831.769" width="49.2311" height="49.2311" stroke="white" stroke-opacity="0.04" stroke-width="0.984621"/>
<rect x="99.4619" y="831.769" width="49.2311" height="49.2311" stroke="white" stroke-opacity="0.04" stroke-width="0.984621"/>
<rect x="148.693" y="831.769" width="49.2311" height="49.2311" stroke="white" stroke-opacity="0.04" stroke-width="0.984621"/>
<rect x="197.924" y="831.769" width="49.2311" height="49.2311" stroke="white" stroke-opacity="0.04" stroke-width="0.984621"/>
<rect x="247.155" y="831.769" width="49.2311" height="49.2311" stroke="white" stroke-opacity="0.04" stroke-width="0.984621"/>
<rect x="296.387" y="831.769" width="49.2311" height="49.2311" stroke="white" stroke-opacity="0.04" stroke-width="0.984621"/>
<rect x="345.617" y="831.769" width="49.2311" height="49.2311" stroke="white" stroke-opacity="0.04" stroke-width="0.984621"/>
<rect x="394.849" y="831.769" width="49.2311" height="49.2311" stroke="white" stroke-opacity="0.04" stroke-width="0.984621"/>
<rect x="444.08" y="831.769" width="49.2311" height="49.2311" stroke="white" stroke-opacity="0.04" stroke-width="0.984621"/>
<rect x="493.311" y="831.769" width="49.2311" height="49.2311" stroke="white" stroke-opacity="0.04" stroke-width="0.984621"/>
<rect x="542.542" y="831.769" width="49.2311" height="49.2311" stroke="white" stroke-opacity="0.04" stroke-width="0.984621"/>
<rect x="591.772" y="831.769" width="49.2311" height="49.2311" stroke="white" stroke-opacity="0.04" stroke-width="0.984621"/>
<rect x="641.004" y="831.769" width="49.2311" height="49.2311" stroke="white" stroke-opacity="0.04" stroke-width="0.984621"/>
<rect x="690.235" y="831.769" width="49.2311" height="49.2311" stroke="white" stroke-opacity="0.04" stroke-width="0.984621"/>
<rect x="739.466" y="831.769" width="49.2311" height="49.2311" stroke="white" stroke-opacity="0.04" stroke-width="0.984621"/>
<rect x="788.697" y="831.769" width="49.2311" height="49.2311" stroke="white" stroke-opacity="0.04" stroke-width="0.984621"/>
<rect x="837.928" y="831.769" width="49.2311" height="49.2311" stroke="white" stroke-opacity="0.04" stroke-width="0.984621"/>
<rect x="887.16" y="831.769" width="49.2311" height="49.2311" stroke="white" stroke-opacity="0.04" stroke-width="0.984621"/>
<rect x="936.391" y="831.769" width="49.2311" height="49.2311" stroke="white" stroke-opacity="0.04" stroke-width="0.984621"/>
<rect x="985.621" y="831.769" width="49.2311" height="49.2311" stroke="white" stroke-opacity="0.04" stroke-width="0.984621"/>
</mask>
<g mask="url(#mask0_815_542)">
<ellipse cx="567.424" cy="476.125" rx="696.424" ry="703.125" fill="white"/>
</g>
</svg>
